solid OpenSCAD_Model
  facet normal -0.573576 0.819152 0
    outer loop
      vertex 1.99941 2.8 3.5
      vertex 1.99941 2.8 0
      vertex 0 1.4 3.5
    endloop
  endfacet
  facet normal -0.573576 0.819152 0
    outer loop
      vertex 0 1.4 3.5
      vertex 1.99941 2.8 0
      vertex 0 1.4 0
    endloop
  endfacet
  facet normal -0.573576 -0.819152 0
    outer loop
      vertex 1.99941 0 0
      vertex 1.99941 0 3.5
      vertex 0 1.4 3.5
    endloop
  endfacet
  facet normal -0.573576 -0.819152 0
    outer loop
      vertex 0 1.4 0
      vertex 1.99941 0 0
      vertex 0 1.4 3.5
    endloop
  endfacet
  facet normal 0 0 -1
    outer loop
      vertex 0 1.4 0
      vertex 1.99941 2.8 0
      vertex 1.99941 0 0
    endloop
  endfacet
  facet normal 0 0 -1
    outer loop
      vertex 1.99941 0 0
      vertex 1.99941 2.8 0
      vertex 32 2.8 0
    endloop
  endfacet
  facet normal 0 0 -1
    outer loop
      vertex 1.99941 0 0
      vertex 32 2.8 0
      vertex 32 0 0
    endloop
  endfacet
  facet normal 0 0 1
    outer loop
      vertex 1.99941 0 3.5
      vertex 22.4 0 3.5
      vertex 22.4 2.8 3.5
    endloop
  endfacet
  facet normal 0 0 1
    outer loop
      vertex 0 1.4 3.5
      vertex 1.99941 0 3.5
      vertex 1.99941 2.8 3.5
    endloop
  endfacet
  facet normal 0 0 1
    outer loop
      vertex 1.99941 2.8 3.5
      vertex 1.99941 0 3.5
      vertex 22.4 2.8 3.5
    endloop
  endfacet
  facet normal 0 1 0
    outer loop
      vertex 1.99941 2.8 0
      vertex 1.99941 2.8 3.5
      vertex 32 2.8 0
    endloop
  endfacet
  facet normal 0 1 0
    outer loop
      vertex 32 2.8 0
      vertex 1.99941 2.8 3.5
      vertex 22.4 2.8 3.5
    endloop
  endfacet
  facet normal 0 1 0
    outer loop
      vertex 32 2.8 0
      vertex 22.4 2.8 3.5
      vertex 22.4 2.8 4.85484
    endloop
  endfacet
  facet normal 0 1 0
    outer loop
      vertex 22.4 2.8 4.85484
      vertex 1.99941 2.8 4.85484
      vertex 1.99941 2.8 6.55484
    endloop
  endfacet
  facet normal 0 1 0
    outer loop
      vertex 22.4 2.8 4.85484
      vertex 1.99941 2.8 6.55484
      vertex 22.4 2.8 6.55484
    endloop
  endfacet
  facet normal 0 1 0
    outer loop
      vertex 22.4 2.8 4.85484
      vertex 22.4 2.8 6.55484
      vertex 32 2.8 0
    endloop
  endfacet
  facet normal 0 1 0
    outer loop
      vertex 22.4 2.8 6.55484
      vertex 22.4 2.8 7.90968
      vertex 32 2.8 0
    endloop
  endfacet
  facet normal 0 1 0
    outer loop
      vertex 22.4 2.8 7.90968
      vertex 1.99941 2.8 7.90968
      vertex 1.99941 2.8 9.60968
    endloop
  endfacet
  facet normal 0 1 0
    outer loop
      vertex 22.4 2.8 7.90968
      vertex 1.99941 2.8 9.60968
      vertex 22.4 2.8 9.60968
    endloop
  endfacet
  facet normal 0 1 0
    outer loop
      vertex 22.4 2.8 7.90968
      vertex 22.4 2.8 9.60968
      vertex 32 2.8 0
    endloop
  endfacet
  facet normal 0 1 0
    outer loop
      vertex 22.4 2.8 9.60968
      vertex 22.4 2.8 10.9645
      vertex 32 2.8 0
    endloop
  endfacet
  facet normal 0 1 0
    outer loop
      vertex 22.4 2.8 10.9645
      vertex 1.99941 2.8 10.9645
      vertex 1.99941 2.8 12.6645
    endloop
  endfacet
  facet normal 0 1 0
    outer loop
      vertex 22.4 2.8 10.9645
      vertex 1.99941 2.8 12.6645
      vertex 22.4 2.8 12.6645
    endloop
  endfacet
  facet normal 0 1 0
    outer loop
      vertex 22.4 2.8 10.9645
      vertex 22.4 2.8 12.6645
      vertex 32 2.8 0
    endloop
  endfacet
  facet normal 0 1 0
    outer loop
      vertex 22.4 2.8 12.6645
      vertex 22.4 2.8 14.0194
      vertex 32 2.8 0
    endloop
  endfacet
  facet normal 0 1 0
    outer loop
      vertex 22.4 2.8 14.0194
      vertex 1.99941 2.8 14.0194
      vertex 1.99941 2.8 15.7194
    endloop
  endfacet
  facet normal 0 1 0
    outer loop
      vertex 22.4 2.8 14.0194
      vertex 1.99941 2.8 15.7194
      vertex 22.4 2.8 15.7194
    endloop
  endfacet
  facet normal 0 1 0
    outer loop
      vertex 22.4 2.8 14.0194
      vertex 22.4 2.8 15.7194
      vertex 32 2.8 0
    endloop
  endfacet
  facet normal 0 1 0
    outer loop
      vertex 22.4 2.8 15.7194
      vertex 22.4 2.8 17.0742
      vertex 32 2.8 0
    endloop
  endfacet
  facet normal 0 1 0
    outer loop
      vertex 22.4 2.8 17.0742
      vertex 1.99941 2.8 17.0742
      vertex 1.99941 2.8 18.7742
    endloop
  endfacet
  facet normal 0 1 0
    outer loop
      vertex 22.4 2.8 17.0742
      vertex 1.99941 2.8 18.7742
      vertex 22.4 2.8 18.7742
    endloop
  endfacet
  facet normal 0 1 0
    outer loop
      vertex 22.4 2.8 17.0742
      vertex 22.4 2.8 18.7742
      vertex 32 2.8 0
    endloop
  endfacet
  facet normal 0 1 0
    outer loop
      vertex 22.4 2.8 18.7742
      vertex 22.4 2.8 20.129
      vertex 32 2.8 0
    endloop
  endfacet
  facet normal 0 1 0
    outer loop
      vertex 22.4 2.8 20.129
      vertex 1.99941 2.8 20.129
      vertex 1.99941 2.8 21.829
    endloop
  endfacet
  facet normal 0 1 0
    outer loop
      vertex 22.4 2.8 20.129
      vertex 1.99941 2.8 21.829
      vertex 22.4 2.8 21.829
    endloop
  endfacet
  facet normal 0 1 0
    outer loop
      vertex 22.4 2.8 20.129
      vertex 22.4 2.8 21.829
      vertex 32 2.8 0
    endloop
  endfacet
  facet normal 0 1 0
    outer loop
      vertex 22.4 2.8 21.829
      vertex 22.4 2.8 23.1839
      vertex 32 2.8 0
    endloop
  endfacet
  facet normal 0 1 0
    outer loop
      vertex 22.4 2.8 23.1839
      vertex 1.99941 2.8 23.1839
      vertex 1.99941 2.8 24.8839
    endloop
  endfacet
  facet normal 0 1 0
    outer loop
      vertex 22.4 2.8 23.1839
      vertex 1.99941 2.8 24.8839
      vertex 22.4 2.8 24.8839
    endloop
  endfacet
  facet normal 0 1 0
    outer loop
      vertex 22.4 2.8 23.1839
      vertex 22.4 2.8 24.8839
      vertex 32 2.8 0
    endloop
  endfacet
  facet normal 0 1 0
    outer loop
      vertex 22.4 2.8 24.8839
      vertex 22.4 2.8 26.2387
      vertex 32 2.8 0
    endloop
  endfacet
  facet normal 0 1 0
    outer loop
      vertex 22.4 2.8 26.2387
      vertex 1.99941 2.8 26.2387
      vertex 1.99941 2.8 27.9387
    endloop
  endfacet
  facet normal 0 1 0
    outer loop
      vertex 22.4 2.8 26.2387
      vertex 1.99941 2.8 27.9387
      vertex 22.4 2.8 27.9387
    endloop
  endfacet
  facet normal 0 1 0
    outer loop
      vertex 22.4 2.8 26.2387
      vertex 22.4 2.8 27.9387
      vertex 32 2.8 0
    endloop
  endfacet
  facet normal 0 1 0
    outer loop
      vertex 22.4 2.8 27.9387
      vertex 22.4 2.8 29.2935
      vertex 32 2.8 0
    endloop
  endfacet
  facet normal 0 1 0
    outer loop
      vertex 22.4 2.8 29.2935
      vertex 1.99941 2.8 29.2935
      vertex 1.99941 2.8 30.9935
    endloop
  endfacet
  facet normal 0 1 0
    outer loop
      vertex 22.4 2.8 29.2935
      vertex 1.99941 2.8 30.9935
      vertex 22.4 2.8 30.9935
    endloop
  endfacet
  facet normal 0 1 0
    outer loop
      vertex 22.4 2.8 29.2935
      vertex 22.4 2.8 30.9935
      vertex 32 2.8 0
    endloop
  endfacet
  facet normal 0 1 0
    outer loop
      vertex 22.4 2.8 30.9935
      vertex 22.4 2.8 32.3484
      vertex 32 2.8 0
    endloop
  endfacet
  facet normal 0 1 0
    outer loop
      vertex 22.4 2.8 32.3484
      vertex 1.99941 2.8 32.3484
      vertex 1.99941 2.8 34.0484
    endloop
  endfacet
  facet normal 0 1 0
    outer loop
      vertex 22.4 2.8 32.3484
      vertex 1.99941 2.8 34.0484
      vertex 22.4 2.8 34.0484
    endloop
  endfacet
  facet normal 0 1 0
    outer loop
      vertex 22.4 2.8 32.3484
      vertex 22.4 2.8 34.0484
      vertex 32 2.8 0
    endloop
  endfacet
  facet normal 0 1 0
    outer loop
      vertex 22.4 2.8 34.0484
      vertex 22.4 2.8 35.4032
      vertex 32 2.8 0
    endloop
  endfacet
  facet normal 0 1 0
    outer loop
      vertex 22.4 2.8 35.4032
      vertex 1.99941 2.8 35.4032
      vertex 1.99941 2.8 37.1032
    endloop
  endfacet
  facet normal 0 1 0
    outer loop
      vertex 22.4 2.8 35.4032
      vertex 1.99941 2.8 37.1032
      vertex 22.4 2.8 37.1032
    endloop
  endfacet
  facet normal 0 1 0
    outer loop
      vertex 22.4 2.8 35.4032
      vertex 22.4 2.8 37.1032
      vertex 32 2.8 0
    endloop
  endfacet
  facet normal 0 1 0
    outer loop
      vertex 22.4 2.8 37.1032
      vertex 22.4 2.8 38.4581
      vertex 32 2.8 0
    endloop
  endfacet
  facet normal 0 1 0
    outer loop
      vertex 22.4 2.8 38.4581
      vertex 1.99941 2.8 38.4581
      vertex 1.99941 2.8 40.1581
    endloop
  endfacet
  facet normal 0 1 0
    outer loop
      vertex 22.4 2.8 38.4581
      vertex 1.99941 2.8 40.1581
      vertex 22.4 2.8 40.1581
    endloop
  endfacet
  facet normal 0 1 0
    outer loop
      vertex 22.4 2.8 38.4581
      vertex 22.4 2.8 40.1581
      vertex 32 2.8 0
    endloop
  endfacet
  facet normal 0 1 0
    outer loop
      vertex 22.4 2.8 40.1581
      vertex 22.4 2.8 41.5129
      vertex 32 2.8 0
    endloop
  endfacet
  facet normal 0 1 0
    outer loop
      vertex 22.4 2.8 41.5129
      vertex 1.99941 2.8 41.5129
      vertex 1.99941 2.8 43.2129
    endloop
  endfacet
  facet normal 0 1 0
    outer loop
      vertex 22.4 2.8 41.5129
      vertex 1.99941 2.8 43.2129
      vertex 22.4 2.8 43.2129
    endloop
  endfacet
  facet normal 0 1 0
    outer loop
      vertex 22.4 2.8 41.5129
      vertex 22.4 2.8 43.2129
      vertex 32 2.8 0
    endloop
  endfacet
  facet normal 0 1 0
    outer loop
      vertex 22.4 2.8 43.2129
      vertex 22.4 2.8 44.5677
      vertex 32 2.8 0
    endloop
  endfacet
  facet normal 0 1 0
    outer loop
      vertex 22.4 2.8 44.5677
      vertex 1.99941 2.8 44.5677
      vertex 1.99941 2.8 46.2677
    endloop
  endfacet
  facet normal 0 1 0
    outer loop
      vertex 22.4 2.8 44.5677
      vertex 1.99941 2.8 46.2677
      vertex 22.4 2.8 46.2677
    endloop
  endfacet
  facet normal 0 1 0
    outer loop
      vertex 22.4 2.8 44.5677
      vertex 22.4 2.8 46.2677
      vertex 32 2.8 0
    endloop
  endfacet
  facet normal 0 1 0
    outer loop
      vertex 22.4 2.8 46.2677
      vertex 22.4 2.8 47.6226
      vertex 32 2.8 0
    endloop
  endfacet
  facet normal 0 1 0
    outer loop
      vertex 22.4 2.8 47.6226
      vertex 1.99941 2.8 47.6226
      vertex 1.99941 2.8 49.3226
    endloop
  endfacet
  facet normal 0 1 0
    outer loop
      vertex 22.4 2.8 47.6226
      vertex 1.99941 2.8 49.3226
      vertex 22.4 2.8 49.3226
    endloop
  endfacet
  facet normal 0 1 0
    outer loop
      vertex 22.4 2.8 47.6226
      vertex 22.4 2.8 49.3226
      vertex 32 2.8 0
    endloop
  endfacet
  facet normal 0 1 0
    outer loop
      vertex 22.4 2.8 49.3226
      vertex 22.4 2.8 50.6774
      vertex 32 2.8 0
    endloop
  endfacet
  facet normal 0 1 0
    outer loop
      vertex 22.4 2.8 50.6774
      vertex 1.99941 2.8 50.6774
      vertex 1.99941 2.8 52.3774
    endloop
  endfacet
  facet normal 0 1 0
    outer loop
      vertex 22.4 2.8 50.6774
      vertex 1.99941 2.8 52.3774
      vertex 22.4 2.8 52.3774
    endloop
  endfacet
  facet normal 0 1 0
    outer loop
      vertex 22.4 2.8 50.6774
      vertex 22.4 2.8 52.3774
      vertex 32 2.8 0
    endloop
  endfacet
  facet normal 0 1 0
    outer loop
      vertex 22.4 2.8 52.3774
      vertex 22.4 2.8 53.7323
      vertex 32 2.8 0
    endloop
  endfacet
  facet normal 0 1 0
    outer loop
      vertex 22.4 2.8 53.7323
      vertex 1.99941 2.8 53.7323
      vertex 1.99941 2.8 55.4323
    endloop
  endfacet
  facet normal 0 1 0
    outer loop
      vertex 22.4 2.8 53.7323
      vertex 1.99941 2.8 55.4323
      vertex 22.4 2.8 55.4323
    endloop
  endfacet
  facet normal 0 1 0
    outer loop
      vertex 22.4 2.8 53.7323
      vertex 22.4 2.8 55.4323
      vertex 32 2.8 0
    endloop
  endfacet
  facet normal 0 1 0
    outer loop
      vertex 22.4 2.8 55.4323
      vertex 22.4 2.8 56.7871
      vertex 32 2.8 0
    endloop
  endfacet
  facet normal 0 1 0
    outer loop
      vertex 22.4 2.8 56.7871
      vertex 1.99941 2.8 56.7871
      vertex 1.99941 2.8 58.4871
    endloop
  endfacet
  facet normal 0 1 0
    outer loop
      vertex 22.4 2.8 56.7871
      vertex 1.99941 2.8 58.4871
      vertex 22.4 2.8 58.4871
    endloop
  endfacet
  facet normal 0 1 0
    outer loop
      vertex 22.4 2.8 56.7871
      vertex 22.4 2.8 58.4871
      vertex 32 2.8 0
    endloop
  endfacet
  facet normal 0 1 0
    outer loop
      vertex 22.4 2.8 58.4871
      vertex 22.4 2.8 59.8419
      vertex 32 2.8 0
    endloop
  endfacet
  facet normal 0 1 0
    outer loop
      vertex 22.4 2.8 59.8419
      vertex 1.99941 2.8 59.8419
      vertex 1.99941 2.8 61.5419
    endloop
  endfacet
  facet normal 0 1 0
    outer loop
      vertex 22.4 2.8 59.8419
      vertex 1.99941 2.8 61.5419
      vertex 22.4 2.8 61.5419
    endloop
  endfacet
  facet normal 0 1 0
    outer loop
      vertex 22.4 2.8 59.8419
      vertex 22.4 2.8 61.5419
      vertex 32 2.8 0
    endloop
  endfacet
  facet normal 0 1 0
    outer loop
      vertex 22.4 2.8 61.5419
      vertex 22.4 2.8 62.8968
      vertex 32 2.8 0
    endloop
  endfacet
  facet normal 0 1 0
    outer loop
      vertex 22.4 2.8 62.8968
      vertex 1.99941 2.8 62.8968
      vertex 1.99941 2.8 64.5968
    endloop
  endfacet
  facet normal 0 1 0
    outer loop
      vertex 22.4 2.8 62.8968
      vertex 1.99941 2.8 64.5968
      vertex 22.4 2.8 64.5968
    endloop
  endfacet
  facet normal 0 1 0
    outer loop
      vertex 22.4 2.8 62.8968
      vertex 22.4 2.8 64.5968
      vertex 32 2.8 0
    endloop
  endfacet
  facet normal 0 1 0
    outer loop
      vertex 22.4 2.8 64.5968
      vertex 22.4 2.8 65.9516
      vertex 32 2.8 0
    endloop
  endfacet
  facet normal 0 1 0
    outer loop
      vertex 22.4 2.8 65.9516
      vertex 1.99941 2.8 65.9516
      vertex 1.99941 2.8 67.6516
    endloop
  endfacet
  facet normal 0 1 0
    outer loop
      vertex 22.4 2.8 65.9516
      vertex 1.99941 2.8 67.6516
      vertex 22.4 2.8 67.6516
    endloop
  endfacet
  facet normal 0 1 0
    outer loop
      vertex 22.4 2.8 65.9516
      vertex 22.4 2.8 67.6516
      vertex 32 2.8 0
    endloop
  endfacet
  facet normal 0 1 0
    outer loop
      vertex 22.4 2.8 67.6516
      vertex 22.4 2.8 69.0065
      vertex 32 2.8 0
    endloop
  endfacet
  facet normal 0 1 0
    outer loop
      vertex 22.4 2.8 69.0065
      vertex 1.99941 2.8 69.0065
      vertex 1.99941 2.8 70.7065
    endloop
  endfacet
  facet normal 0 1 0
    outer loop
      vertex 22.4 2.8 69.0065
      vertex 1.99941 2.8 70.7065
      vertex 22.4 2.8 70.7065
    endloop
  endfacet
  facet normal 0 1 0
    outer loop
      vertex 22.4 2.8 69.0065
      vertex 22.4 2.8 70.7065
      vertex 32 2.8 0
    endloop
  endfacet
  facet normal 0 1 0
    outer loop
      vertex 22.4 2.8 70.7065
      vertex 22.4 2.8 72.0613
      vertex 32 2.8 0
    endloop
  endfacet
  facet normal 0 1 0
    outer loop
      vertex 22.4 2.8 72.0613
      vertex 1.99941 2.8 72.0613
      vertex 1.99941 2.8 73.7613
    endloop
  endfacet
  facet normal 0 1 0
    outer loop
      vertex 22.4 2.8 72.0613
      vertex 1.99941 2.8 73.7613
      vertex 22.4 2.8 73.7613
    endloop
  endfacet
  facet normal 0 1 0
    outer loop
      vertex 22.4 2.8 72.0613
      vertex 22.4 2.8 73.7613
      vertex 32 2.8 0
    endloop
  endfacet
  facet normal 0 1 0
    outer loop
      vertex 22.4 2.8 73.7613
      vertex 22.4 2.8 75.1161
      vertex 32 2.8 0
    endloop
  endfacet
  facet normal 0 1 0
    outer loop
      vertex 22.4 2.8 75.1161
      vertex 1.99941 2.8 75.1161
      vertex 1.99941 2.8 76.8161
    endloop
  endfacet
  facet normal 0 1 0
    outer loop
      vertex 22.4 2.8 75.1161
      vertex 1.99941 2.8 76.8161
      vertex 22.4 2.8 76.8161
    endloop
  endfacet
  facet normal 0 1 0
    outer loop
      vertex 22.4 2.8 75.1161
      vertex 22.4 2.8 76.8161
      vertex 32 2.8 0
    endloop
  endfacet
  facet normal 0 1 0
    outer loop
      vertex 22.4 2.8 76.8161
      vertex 22.4 2.8 78.171
      vertex 32 2.8 0
    endloop
  endfacet
  facet normal 0 1 0
    outer loop
      vertex 22.4 2.8 78.171
      vertex 1.99941 2.8 78.171
      vertex 1.99941 2.8 79.871
    endloop
  endfacet
  facet normal 0 1 0
    outer loop
      vertex 22.4 2.8 78.171
      vertex 1.99941 2.8 79.871
      vertex 22.4 2.8 79.871
    endloop
  endfacet
  facet normal 0 1 0
    outer loop
      vertex 22.4 2.8 78.171
      vertex 22.4 2.8 79.871
      vertex 32 2.8 0
    endloop
  endfacet
  facet normal 0 1 0
    outer loop
      vertex 22.4 2.8 79.871
      vertex 22.4 2.8 81.2258
      vertex 32 2.8 0
    endloop
  endfacet
  facet normal 0 1 0
    outer loop
      vertex 22.4 2.8 81.2258
      vertex 1.99941 2.8 81.2258
      vertex 1.99941 2.8 82.9258
    endloop
  endfacet
  facet normal 0 1 0
    outer loop
      vertex 22.4 2.8 81.2258
      vertex 1.99941 2.8 82.9258
      vertex 22.4 2.8 82.9258
    endloop
  endfacet
  facet normal 0 1 0
    outer loop
      vertex 22.4 2.8 81.2258
      vertex 22.4 2.8 82.9258
      vertex 32 2.8 0
    endloop
  endfacet
  facet normal 0 1 0
    outer loop
      vertex 22.4 2.8 82.9258
      vertex 22.4 2.8 84.2806
      vertex 32 2.8 0
    endloop
  endfacet
  facet normal 0 1 0
    outer loop
      vertex 22.4 2.8 84.2806
      vertex 1.99941 2.8 84.2806
      vertex 1.99941 2.8 85.9806
    endloop
  endfacet
  facet normal 0 1 0
    outer loop
      vertex 22.4 2.8 84.2806
      vertex 1.99941 2.8 85.9806
      vertex 22.4 2.8 85.9806
    endloop
  endfacet
  facet normal 0 1 0
    outer loop
      vertex 22.4 2.8 84.2806
      vertex 22.4 2.8 85.9806
      vertex 32 2.8 0
    endloop
  endfacet
  facet normal 0 1 0
    outer loop
      vertex 22.4 2.8 85.9806
      vertex 22.4 2.8 87.3355
      vertex 32 2.8 0
    endloop
  endfacet
  facet normal 0 1 0
    outer loop
      vertex 22.4 2.8 87.3355
      vertex 1.99941 2.8 87.3355
      vertex 1.99941 2.8 89.0355
    endloop
  endfacet
  facet normal 0 1 0
    outer loop
      vertex 22.4 2.8 87.3355
      vertex 1.99941 2.8 89.0355
      vertex 22.4 2.8 89.0355
    endloop
  endfacet
  facet normal 0 1 0
    outer loop
      vertex 22.4 2.8 87.3355
      vertex 22.4 2.8 89.0355
      vertex 32 2.8 0
    endloop
  endfacet
  facet normal 0 1 0
    outer loop
      vertex 22.4 2.8 89.0355
      vertex 22.4 2.8 90.3903
      vertex 32 2.8 0
    endloop
  endfacet
  facet normal 0 1 0
    outer loop
      vertex 22.4 2.8 90.3903
      vertex 1.99941 2.8 90.3903
      vertex 1.99941 2.8 92.0903
    endloop
  endfacet
  facet normal 0 1 0
    outer loop
      vertex 22.4 2.8 90.3903
      vertex 1.99941 2.8 92.0903
      vertex 22.4 2.8 92.0903
    endloop
  endfacet
  facet normal 0 1 0
    outer loop
      vertex 22.4 2.8 90.3903
      vertex 22.4 2.8 92.0903
      vertex 32 2.8 0
    endloop
  endfacet
  facet normal 0 1 0
    outer loop
      vertex 22.4 2.8 92.0903
      vertex 22.4 2.8 93.4452
      vertex 32 2.8 0
    endloop
  endfacet
  facet normal 0 1 0
    outer loop
      vertex 22.4 2.8 93.4452
      vertex 1.99941 2.8 93.4452
      vertex 1.99941 2.8 95.1452
    endloop
  endfacet
  facet normal 0 1 0
    outer loop
      vertex 22.4 2.8 93.4452
      vertex 1.99941 2.8 95.1452
      vertex 22.4 2.8 95.1452
    endloop
  endfacet
  facet normal 0 1 0
    outer loop
      vertex 22.4 2.8 93.4452
      vertex 22.4 2.8 95.1452
      vertex 32 2.8 0
    endloop
  endfacet
  facet normal 0 1 0
    outer loop
      vertex 22.4 2.8 95.1452
      vertex 22.4 2.8 96.5
      vertex 32 2.8 0
    endloop
  endfacet
  facet normal 0 1 0
    outer loop
      vertex 22.4 2.8 96.5
      vertex 1.99941 2.8 96.5
      vertex 1.99941 2.8 100
    endloop
  endfacet
  facet normal 0 1 0
    outer loop
      vertex 22.4 2.8 96.5
      vertex 1.99941 2.8 100
      vertex 32 2.8 100
    endloop
  endfacet
  facet normal 0 1 0
    outer loop
      vertex 22.4 2.8 96.5
      vertex 32 2.8 100
      vertex 32 2.8 0
    endloop
  endfacet
  facet normal 0 -1 0
    outer loop
      vertex 1.99941 0 3.5
      vertex 1.99941 0 0
      vertex 32 0 0
    endloop
  endfacet
  facet normal 0 -1 0
    outer loop
      vertex 22.4 0 3.5
      vertex 1.99941 0 3.5
      vertex 32 0 0
    endloop
  endfacet
  facet normal 0 -1 0
    outer loop
      vertex 1.99941 0 100
      vertex 1.99941 0 96.5
      vertex 32 0 100
    endloop
  endfacet
  facet normal 0 -1 0
    outer loop
      vertex 1.99941 0 96.5
      vertex 22.4 0 96.5
      vertex 32 0 100
    endloop
  endfacet
  facet normal 0 -1 0
    outer loop
      vertex 1.99941 0 93.4452
      vertex 22.4 0 93.4452
      vertex 22.4 0 95.1452
    endloop
  endfacet
  facet normal 0 -1 0
    outer loop
      vertex 22.4 0 96.5
      vertex 22.4 0 95.1452
      vertex 32 0 100
    endloop
  endfacet
  facet normal 0 -1 0
    outer loop
      vertex 1.99941 0 90.3903
      vertex 22.4 0 90.3903
      vertex 22.4 0 92.0903
    endloop
  endfacet
  facet normal 0 -1 0
    outer loop
      vertex 22.4 0 95.1452
      vertex 22.4 0 93.4452
      vertex 32 0 100
    endloop
  endfacet
  facet normal 0 -1 0
    outer loop
      vertex 22.4 0 93.4452
      vertex 22.4 0 92.0903
      vertex 32 0 100
    endloop
  endfacet
  facet normal 0 -1 0
    outer loop
      vertex 1.99941 0 84.2806
      vertex 22.4 0 84.2806
      vertex 22.4 0 85.9806
    endloop
  endfacet
  facet normal 0 -1 0
    outer loop
      vertex 22.4 0 92.0903
      vertex 22.4 0 90.3903
      vertex 32 0 100
    endloop
  endfacet
  facet normal 0 -1 0
    outer loop
      vertex 22.4 0 90.3903
      vertex 22.4 0 89.0355
      vertex 32 0 100
    endloop
  endfacet
  facet normal 0 -1 0
    outer loop
      vertex 1.99941 0 78.171
      vertex 22.4 0 78.171
      vertex 22.4 0 79.871
    endloop
  endfacet
  facet normal 0 -1 0
    outer loop
      vertex 22.4 0 89.0355
      vertex 22.4 0 87.3355
      vertex 32 0 100
    endloop
  endfacet
  facet normal 0 -1 0
    outer loop
      vertex 22.4 0 87.3355
      vertex 22.4 0 85.9806
      vertex 32 0 100
    endloop
  endfacet
  facet normal 0 -1 0
    outer loop
      vertex 1.99941 0 72.0613
      vertex 22.4 0 72.0613
      vertex 22.4 0 73.7613
    endloop
  endfacet
  facet normal 0 -1 0
    outer loop
      vertex 22.4 0 85.9806
      vertex 22.4 0 84.2806
      vertex 32 0 100
    endloop
  endfacet
  facet normal 0 -1 0
    outer loop
      vertex 22.4 0 84.2806
      vertex 22.4 0 82.9258
      vertex 32 0 100
    endloop
  endfacet
  facet normal 0 -1 0
    outer loop
      vertex 1.99941 0 65.9516
      vertex 22.4 0 65.9516
      vertex 22.4 0 67.6516
    endloop
  endfacet
  facet normal 0 -1 0
    outer loop
      vertex 22.4 0 82.9258
      vertex 22.4 0 81.2258
      vertex 32 0 100
    endloop
  endfacet
  facet normal 0 -1 0
    outer loop
      vertex 22.4 0 81.2258
      vertex 22.4 0 79.871
      vertex 32 0 100
    endloop
  endfacet
  facet normal 0 -1 0
    outer loop
      vertex 1.99941 0 59.8419
      vertex 22.4 0 59.8419
      vertex 22.4 0 61.5419
    endloop
  endfacet
  facet normal 0 -1 0
    outer loop
      vertex 22.4 0 79.871
      vertex 22.4 0 78.171
      vertex 32 0 100
    endloop
  endfacet
  facet normal 0 -1 0
    outer loop
      vertex 22.4 0 78.171
      vertex 22.4 0 76.8161
      vertex 32 0 100
    endloop
  endfacet
  facet normal 0 -1 0
    outer loop
      vertex 1.99941 0 53.7323
      vertex 22.4 0 53.7323
      vertex 22.4 0 55.4323
    endloop
  endfacet
  facet normal 0 -1 0
    outer loop
      vertex 22.4 0 76.8161
      vertex 22.4 0 75.1161
      vertex 32 0 100
    endloop
  endfacet
  facet normal 0 -1 0
    outer loop
      vertex 22.4 0 75.1161
      vertex 22.4 0 73.7613
      vertex 32 0 100
    endloop
  endfacet
  facet normal 0 -1 0
    outer loop
      vertex 1.99941 0 47.6226
      vertex 22.4 0 47.6226
      vertex 22.4 0 49.3226
    endloop
  endfacet
  facet normal 0 -1 0
    outer loop
      vertex 22.4 0 73.7613
      vertex 22.4 0 72.0613
      vertex 32 0 100
    endloop
  endfacet
  facet normal 0 -1 0
    outer loop
      vertex 22.4 0 72.0613
      vertex 22.4 0 70.7065
      vertex 32 0 100
    endloop
  endfacet
  facet normal 0 -1 0
    outer loop
      vertex 1.99941 0 69.0065
      vertex 22.4 0 69.0065
      vertex 22.4 0 70.7065
    endloop
  endfacet
  facet normal 0 -1 0
    outer loop
      vertex 1.99941 0 41.5129
      vertex 22.4 0 41.5129
      vertex 22.4 0 43.2129
    endloop
  endfacet
  facet normal 0 -1 0
    outer loop
      vertex 32 0 100
      vertex 22.4 0 69.0065
      vertex 32 0 0
    endloop
  endfacet
  facet normal 0 -1 0
    outer loop
      vertex 22.4 0 69.0065
      vertex 22.4 0 67.6516
      vertex 32 0 0
    endloop
  endfacet
  facet normal 0 -1 0
    outer loop
      vertex 1.99941 0 35.4032
      vertex 22.4 0 35.4032
      vertex 22.4 0 37.1032
    endloop
  endfacet
  facet normal 0 -1 0
    outer loop
      vertex 22.4 0 67.6516
      vertex 22.4 0 65.9516
      vertex 32 0 0
    endloop
  endfacet
  facet normal 0 -1 0
    outer loop
      vertex 22.4 0 65.9516
      vertex 22.4 0 64.5968
      vertex 32 0 0
    endloop
  endfacet
  facet normal 0 -1 0
    outer loop
      vertex 1.99941 0 29.2935
      vertex 22.4 0 29.2935
      vertex 22.4 0 30.9935
    endloop
  endfacet
  facet normal 0 -1 0
    outer loop
      vertex 22.4 0 64.5968
      vertex 22.4 0 62.8968
      vertex 32 0 0
    endloop
  endfacet
  facet normal 0 -1 0
    outer loop
      vertex 22.4 0 62.8968
      vertex 22.4 0 61.5419
      vertex 32 0 0
    endloop
  endfacet
  facet normal 0 -1 0
    outer loop
      vertex 1.99941 0 23.1839
      vertex 22.4 0 23.1839
      vertex 22.4 0 24.8839
    endloop
  endfacet
  facet normal 0 -1 0
    outer loop
      vertex 22.4 0 61.5419
      vertex 22.4 0 59.8419
      vertex 32 0 0
    endloop
  endfacet
  facet normal 0 -1 0
    outer loop
      vertex 22.4 0 59.8419
      vertex 22.4 0 58.4871
      vertex 32 0 0
    endloop
  endfacet
  facet normal 0 -1 0
    outer loop
      vertex 1.99941 0 17.0742
      vertex 22.4 0 17.0742
      vertex 22.4 0 18.7742
    endloop
  endfacet
  facet normal 0 -1 0
    outer loop
      vertex 22.4 0 58.4871
      vertex 22.4 0 56.7871
      vertex 32 0 0
    endloop
  endfacet
  facet normal 0 -1 0
    outer loop
      vertex 22.4 0 56.7871
      vertex 22.4 0 55.4323
      vertex 32 0 0
    endloop
  endfacet
  facet normal 0 -1 0
    outer loop
      vertex 1.99941 0 10.9645
      vertex 22.4 0 10.9645
      vertex 22.4 0 12.6645
    endloop
  endfacet
  facet normal 0 -1 0
    outer loop
      vertex 22.4 0 55.4323
      vertex 22.4 0 53.7323
      vertex 32 0 0
    endloop
  endfacet
  facet normal 0 -1 0
    outer loop
      vertex 22.4 0 53.7323
      vertex 22.4 0 52.3774
      vertex 32 0 0
    endloop
  endfacet
  facet normal 0 -1 0
    outer loop
      vertex 1.99941 0 4.85484
      vertex 22.4 0 4.85484
      vertex 22.4 0 6.55484
    endloop
  endfacet
  facet normal 0 -1 0
    outer loop
      vertex 22.4 0 52.3774
      vertex 22.4 0 50.6774
      vertex 32 0 0
    endloop
  endfacet
  facet normal 0 -1 0
    outer loop
      vertex 22.4 0 50.6774
      vertex 22.4 0 49.3226
      vertex 32 0 0
    endloop
  endfacet
  facet normal 0 -1 0
    outer loop
      vertex 22.4 0 49.3226
      vertex 22.4 0 47.6226
      vertex 32 0 0
    endloop
  endfacet
  facet normal 0 -1 0
    outer loop
      vertex 22.4 0 47.6226
      vertex 22.4 0 46.2677
      vertex 32 0 0
    endloop
  endfacet
  facet normal 0 -1 0
    outer loop
      vertex 1.99941 0 7.90968
      vertex 22.4 0 7.90968
      vertex 22.4 0 9.60968
    endloop
  endfacet
  facet normal 0 -1 0
    outer loop
      vertex 22.4 0 46.2677
      vertex 22.4 0 44.5677
      vertex 32 0 0
    endloop
  endfacet
  facet normal 0 -1 0
    outer loop
      vertex 22.4 0 44.5677
      vertex 22.4 0 43.2129
      vertex 32 0 0
    endloop
  endfacet
  facet normal 0 -1 0
    outer loop
      vertex 1.99941 0 14.0194
      vertex 22.4 0 14.0194
      vertex 22.4 0 15.7194
    endloop
  endfacet
  facet normal 0 -1 0
    outer loop
      vertex 22.4 0 43.2129
      vertex 22.4 0 41.5129
      vertex 32 0 0
    endloop
  endfacet
  facet normal 0 -1 0
    outer loop
      vertex 22.4 0 41.5129
      vertex 22.4 0 40.1581
      vertex 32 0 0
    endloop
  endfacet
  facet normal 0 -1 0
    outer loop
      vertex 1.99941 0 20.129
      vertex 22.4 0 20.129
      vertex 22.4 0 21.829
    endloop
  endfacet
  facet normal 0 -1 0
    outer loop
      vertex 22.4 0 40.1581
      vertex 22.4 0 38.4581
      vertex 32 0 0
    endloop
  endfacet
  facet normal 0 -1 0
    outer loop
      vertex 22.4 0 38.4581
      vertex 22.4 0 37.1032
      vertex 32 0 0
    endloop
  endfacet
  facet normal 0 -1 0
    outer loop
      vertex 1.99941 0 26.2387
      vertex 22.4 0 26.2387
      vertex 22.4 0 27.9387
    endloop
  endfacet
  facet normal 0 -1 0
    outer loop
      vertex 22.4 0 37.1032
      vertex 22.4 0 35.4032
      vertex 32 0 0
    endloop
  endfacet
  facet normal 0 -1 0
    outer loop
      vertex 22.4 0 35.4032
      vertex 22.4 0 34.0484
      vertex 32 0 0
    endloop
  endfacet
  facet normal 0 -1 0
    outer loop
      vertex 1.99941 0 32.3484
      vertex 22.4 0 32.3484
      vertex 22.4 0 34.0484
    endloop
  endfacet
  facet normal 0 -1 0
    outer loop
      vertex 22.4 0 34.0484
      vertex 22.4 0 32.3484
      vertex 32 0 0
    endloop
  endfacet
  facet normal 0 -1 0
    outer loop
      vertex 22.4 0 32.3484
      vertex 22.4 0 30.9935
      vertex 32 0 0
    endloop
  endfacet
  facet normal 0 -1 0
    outer loop
      vertex 1.99941 0 38.4581
      vertex 22.4 0 38.4581
      vertex 22.4 0 40.1581
    endloop
  endfacet
  facet normal 0 -1 0
    outer loop
      vertex 22.4 0 30.9935
      vertex 22.4 0 29.2935
      vertex 32 0 0
    endloop
  endfacet
  facet normal 0 -1 0
    outer loop
      vertex 22.4 0 29.2935
      vertex 22.4 0 27.9387
      vertex 32 0 0
    endloop
  endfacet
  facet normal 0 -1 0
    outer loop
      vertex 1.99941 0 44.5677
      vertex 22.4 0 44.5677
      vertex 22.4 0 46.2677
    endloop
  endfacet
  facet normal 0 -1 0
    outer loop
      vertex 22.4 0 27.9387
      vertex 22.4 0 26.2387
      vertex 32 0 0
    endloop
  endfacet
  facet normal 0 -1 0
    outer loop
      vertex 22.4 0 26.2387
      vertex 22.4 0 24.8839
      vertex 32 0 0
    endloop
  endfacet
  facet normal 0 -1 0
    outer loop
      vertex 1.99941 0 50.6774
      vertex 22.4 0 50.6774
      vertex 22.4 0 52.3774
    endloop
  endfacet
  facet normal 0 -1 0
    outer loop
      vertex 22.4 0 24.8839
      vertex 22.4 0 23.1839
      vertex 32 0 0
    endloop
  endfacet
  facet normal 0 -1 0
    outer loop
      vertex 22.4 0 23.1839
      vertex 22.4 0 21.829
      vertex 32 0 0
    endloop
  endfacet
  facet normal 0 -1 0
    outer loop
      vertex 1.99941 0 56.7871
      vertex 22.4 0 56.7871
      vertex 22.4 0 58.4871
    endloop
  endfacet
  facet normal 0 -1 0
    outer loop
      vertex 22.4 0 21.829
      vertex 22.4 0 20.129
      vertex 32 0 0
    endloop
  endfacet
  facet normal 0 -1 0
    outer loop
      vertex 22.4 0 20.129
      vertex 22.4 0 18.7742
      vertex 32 0 0
    endloop
  endfacet
  facet normal 0 -1 0
    outer loop
      vertex 1.99941 0 62.8968
      vertex 22.4 0 62.8968
      vertex 22.4 0 64.5968
    endloop
  endfacet
  facet normal 0 -1 0
    outer loop
      vertex 22.4 0 18.7742
      vertex 22.4 0 17.0742
      vertex 32 0 0
    endloop
  endfacet
  facet normal 0 -1 0
    outer loop
      vertex 22.4 0 17.0742
      vertex 22.4 0 15.7194
      vertex 32 0 0
    endloop
  endfacet
  facet normal 0 -1 0
    outer loop
      vertex 22.4 0 70.7065
      vertex 22.4 0 69.0065
      vertex 32 0 100
    endloop
  endfacet
  facet normal 0 -1 0
    outer loop
      vertex 22.4 0 15.7194
      vertex 22.4 0 14.0194
      vertex 32 0 0
    endloop
  endfacet
  facet normal 0 -1 0
    outer loop
      vertex 22.4 0 14.0194
      vertex 22.4 0 12.6645
      vertex 32 0 0
    endloop
  endfacet
  facet normal 0 -1 0
    outer loop
      vertex 1.99941 0 75.1161
      vertex 22.4 0 75.1161
      vertex 22.4 0 76.8161
    endloop
  endfacet
  facet normal 0 -1 0
    outer loop
      vertex 22.4 0 12.6645
      vertex 22.4 0 10.9645
      vertex 32 0 0
    endloop
  endfacet
  facet normal 0 -1 0
    outer loop
      vertex 22.4 0 10.9645
      vertex 22.4 0 9.60968
      vertex 32 0 0
    endloop
  endfacet
  facet normal 0 -1 0
    outer loop
      vertex 1.99941 0 81.2258
      vertex 22.4 0 81.2258
      vertex 22.4 0 82.9258
    endloop
  endfacet
  facet normal 0 -1 0
    outer loop
      vertex 22.4 0 9.60968
      vertex 22.4 0 7.90968
      vertex 32 0 0
    endloop
  endfacet
  facet normal 0 -1 0
    outer loop
      vertex 22.4 0 7.90968
      vertex 22.4 0 6.55484
      vertex 32 0 0
    endloop
  endfacet
  facet normal 0 -1 0
    outer loop
      vertex 1.99941 0 87.3355
      vertex 22.4 0 87.3355
      vertex 22.4 0 89.0355
    endloop
  endfacet
  facet normal 0 -1 0
    outer loop
      vertex 22.4 0 6.55484
      vertex 22.4 0 4.85484
      vertex 32 0 0
    endloop
  endfacet
  facet normal 0 -1 0
    outer loop
      vertex 22.4 0 4.85484
      vertex 22.4 0 3.5
      vertex 32 0 0
    endloop
  endfacet
  facet normal 0 -1 0
    outer loop
      vertex 22.4 0 6.55484
      vertex 1.99941 0 6.55484
      vertex 1.99941 0 4.85484
    endloop
  endfacet
  facet normal 0 -1 0
    outer loop
      vertex 22.4 0 9.60968
      vertex 1.99941 0 9.60968
      vertex 1.99941 0 7.90968
    endloop
  endfacet
  facet normal 0 -1 0
    outer loop
      vertex 22.4 0 12.6645
      vertex 1.99941 0 12.6645
      vertex 1.99941 0 10.9645
    endloop
  endfacet
  facet normal 0 -1 0
    outer loop
      vertex 22.4 0 15.7194
      vertex 1.99941 0 15.7194
      vertex 1.99941 0 14.0194
    endloop
  endfacet
  facet normal 0 -1 0
    outer loop
      vertex 22.4 0 18.7742
      vertex 1.99941 0 18.7742
      vertex 1.99941 0 17.0742
    endloop
  endfacet
  facet normal 0 -1 0
    outer loop
      vertex 22.4 0 21.829
      vertex 1.99941 0 21.829
      vertex 1.99941 0 20.129
    endloop
  endfacet
  facet normal 0 -1 0
    outer loop
      vertex 22.4 0 24.8839
      vertex 1.99941 0 24.8839
      vertex 1.99941 0 23.1839
    endloop
  endfacet
  facet normal 0 -1 0
    outer loop
      vertex 22.4 0 27.9387
      vertex 1.99941 0 27.9387
      vertex 1.99941 0 26.2387
    endloop
  endfacet
  facet normal 0 -1 0
    outer loop
      vertex 22.4 0 30.9935
      vertex 1.99941 0 30.9935
      vertex 1.99941 0 29.2935
    endloop
  endfacet
  facet normal 0 -1 0
    outer loop
      vertex 22.4 0 34.0484
      vertex 1.99941 0 34.0484
      vertex 1.99941 0 32.3484
    endloop
  endfacet
  facet normal 0 -1 0
    outer loop
      vertex 22.4 0 37.1032
      vertex 1.99941 0 37.1032
      vertex 1.99941 0 35.4032
    endloop
  endfacet
  facet normal 0 -1 0
    outer loop
      vertex 22.4 0 40.1581
      vertex 1.99941 0 40.1581
      vertex 1.99941 0 38.4581
    endloop
  endfacet
  facet normal 0 -1 0
    outer loop
      vertex 22.4 0 43.2129
      vertex 1.99941 0 43.2129
      vertex 1.99941 0 41.5129
    endloop
  endfacet
  facet normal 0 -1 0
    outer loop
      vertex 22.4 0 46.2677
      vertex 1.99941 0 46.2677
      vertex 1.99941 0 44.5677
    endloop
  endfacet
  facet normal 0 -1 0
    outer loop
      vertex 22.4 0 49.3226
      vertex 1.99941 0 49.3226
      vertex 1.99941 0 47.6226
    endloop
  endfacet
  facet normal 0 -1 0
    outer loop
      vertex 22.4 0 52.3774
      vertex 1.99941 0 52.3774
      vertex 1.99941 0 50.6774
    endloop
  endfacet
  facet normal 0 -1 0
    outer loop
      vertex 22.4 0 55.4323
      vertex 1.99941 0 55.4323
      vertex 1.99941 0 53.7323
    endloop
  endfacet
  facet normal 0 -1 0
    outer loop
      vertex 22.4 0 58.4871
      vertex 1.99941 0 58.4871
      vertex 1.99941 0 56.7871
    endloop
  endfacet
  facet normal 0 -1 0
    outer loop
      vertex 22.4 0 61.5419
      vertex 1.99941 0 61.5419
      vertex 1.99941 0 59.8419
    endloop
  endfacet
  facet normal 0 -1 0
    outer loop
      vertex 22.4 0 64.5968
      vertex 1.99941 0 64.5968
      vertex 1.99941 0 62.8968
    endloop
  endfacet
  facet normal 0 -1 0
    outer loop
      vertex 22.4 0 67.6516
      vertex 1.99941 0 67.6516
      vertex 1.99941 0 65.9516
    endloop
  endfacet
  facet normal 0 -1 0
    outer loop
      vertex 22.4 0 70.7065
      vertex 1.99941 0 70.7065
      vertex 1.99941 0 69.0065
    endloop
  endfacet
  facet normal 0 -1 0
    outer loop
      vertex 22.4 0 73.7613
      vertex 1.99941 0 73.7613
      vertex 1.99941 0 72.0613
    endloop
  endfacet
  facet normal 0 -1 0
    outer loop
      vertex 22.4 0 76.8161
      vertex 1.99941 0 76.8161
      vertex 1.99941 0 75.1161
    endloop
  endfacet
  facet normal 0 -1 0
    outer loop
      vertex 22.4 0 79.871
      vertex 1.99941 0 79.871
      vertex 1.99941 0 78.171
    endloop
  endfacet
  facet normal 0 -1 0
    outer loop
      vertex 22.4 0 82.9258
      vertex 1.99941 0 82.9258
      vertex 1.99941 0 81.2258
    endloop
  endfacet
  facet normal 0 -1 0
    outer loop
      vertex 22.4 0 85.9806
      vertex 1.99941 0 85.9806
      vertex 1.99941 0 84.2806
    endloop
  endfacet
  facet normal 0 -1 0
    outer loop
      vertex 22.4 0 89.0355
      vertex 1.99941 0 89.0355
      vertex 1.99941 0 87.3355
    endloop
  endfacet
  facet normal 0 -1 0
    outer loop
      vertex 22.4 0 92.0903
      vertex 1.99941 0 92.0903
      vertex 1.99941 0 90.3903
    endloop
  endfacet
  facet normal 0 -1 0
    outer loop
      vertex 22.4 0 95.1452
      vertex 1.99941 0 95.1452
      vertex 1.99941 0 93.4452
    endloop
  endfacet
  facet normal 1 0 0
    outer loop
      vertex 32 0 100
      vertex 32 0 0
      vertex 32 2.8 0
    endloop
  endfacet
  facet normal 1 0 0
    outer loop
      vertex 32 2.8 100
      vertex 32 0 100
      vertex 32 2.8 0
    endloop
  endfacet
  facet normal -1 0 0
    outer loop
      vertex 22.4 2.8 4.85484
      vertex 22.4 2.8 3.5
      vertex 22.4 0 4.85484
    endloop
  endfacet
  facet normal -1 0 0
    outer loop
      vertex 22.4 0 4.85484
      vertex 22.4 2.8 3.5
      vertex 22.4 0 3.5
    endloop
  endfacet
  facet normal 0 0 1
    outer loop
      vertex 1.99941 2.8 100
      vertex 0 1.4 100
      vertex 1.99941 0 100
    endloop
  endfacet
  facet normal 0 0 1
    outer loop
      vertex 32 2.8 100
      vertex 1.99941 2.8 100
      vertex 32 0 100
    endloop
  endfacet
  facet normal 0 0 1
    outer loop
      vertex 32 0 100
      vertex 1.99941 2.8 100
      vertex 1.99941 0 100
    endloop
  endfacet
  facet normal -0.573576 0.819152 0
    outer loop
      vertex 1.99941 2.8 100
      vertex 1.99941 2.8 96.5
      vertex 0 1.4 100
    endloop
  endfacet
  facet normal -0.573576 0.819152 0
    outer loop
      vertex 0 1.4 100
      vertex 1.99941 2.8 96.5
      vertex 0 1.4 96.5
    endloop
  endfacet
  facet normal 0 0 -1
    outer loop
      vertex 22.4 2.8 96.5
      vertex 22.4 0 96.5
      vertex 1.99941 2.8 96.5
    endloop
  endfacet
  facet normal 0 0 -1
    outer loop
      vertex 1.99941 2.8 96.5
      vertex 22.4 0 96.5
      vertex 1.99941 0 96.5
    endloop
  endfacet
  facet normal 0 0 -1
    outer loop
      vertex 1.99941 2.8 96.5
      vertex 1.99941 0 96.5
      vertex 0 1.4 96.5
    endloop
  endfacet
  facet normal -1 0 0
    outer loop
      vertex 22.4 2.8 96.5
      vertex 22.4 2.8 95.1452
      vertex 22.4 0 96.5
    endloop
  endfacet
  facet normal -1 0 0
    outer loop
      vertex 22.4 0 96.5
      vertex 22.4 2.8 95.1452
      vertex 22.4 0 95.1452
    endloop
  endfacet
  facet normal 0 0 1
    outer loop
      vertex 1.99941 0 95.1452
      vertex 22.4 0 95.1452
      vertex 22.4 2.8 95.1452
    endloop
  endfacet
  facet normal 0 0 1
    outer loop
      vertex 0 1.4 95.1452
      vertex 1.99941 0 95.1452
      vertex 1.99941 2.8 95.1452
    endloop
  endfacet
  facet normal 0 0 1
    outer loop
      vertex 1.99941 2.8 95.1452
      vertex 1.99941 0 95.1452
      vertex 22.4 2.8 95.1452
    endloop
  endfacet
  facet normal -0.573576 0.819152 0
    outer loop
      vertex 1.99941 2.8 95.1452
      vertex 1.99941 2.8 93.4452
      vertex 0 1.4 95.1452
    endloop
  endfacet
  facet normal -0.573576 0.819152 0
    outer loop
      vertex 0 1.4 95.1452
      vertex 1.99941 2.8 93.4452
      vertex 0 1.4 93.4452
    endloop
  endfacet
  facet normal 0 0 -1
    outer loop
      vertex 22.4 2.8 93.4452
      vertex 22.4 0 93.4452
      vertex 1.99941 2.8 93.4452
    endloop
  endfacet
  facet normal 0 0 -1
    outer loop
      vertex 1.99941 2.8 93.4452
      vertex 22.4 0 93.4452
      vertex 1.99941 0 93.4452
    endloop
  endfacet
  facet normal 0 0 -1
    outer loop
      vertex 1.99941 2.8 93.4452
      vertex 1.99941 0 93.4452
      vertex 0 1.4 93.4452
    endloop
  endfacet
  facet normal -1 0 0
    outer loop
      vertex 22.4 2.8 93.4452
      vertex 22.4 2.8 92.0903
      vertex 22.4 0 93.4452
    endloop
  endfacet
  facet normal -1 0 0
    outer loop
      vertex 22.4 0 93.4452
      vertex 22.4 2.8 92.0903
      vertex 22.4 0 92.0903
    endloop
  endfacet
  facet normal 0 0 1
    outer loop
      vertex 1.99941 0 92.0903
      vertex 22.4 0 92.0903
      vertex 22.4 2.8 92.0903
    endloop
  endfacet
  facet normal 0 0 1
    outer loop
      vertex 0 1.4 92.0903
      vertex 1.99941 0 92.0903
      vertex 1.99941 2.8 92.0903
    endloop
  endfacet
  facet normal 0 0 1
    outer loop
      vertex 1.99941 2.8 92.0903
      vertex 1.99941 0 92.0903
      vertex 22.4 2.8 92.0903
    endloop
  endfacet
  facet normal -0.573576 0.819152 0
    outer loop
      vertex 1.99941 2.8 92.0903
      vertex 1.99941 2.8 90.3903
      vertex 0 1.4 92.0903
    endloop
  endfacet
  facet normal -0.573576 0.819152 0
    outer loop
      vertex 0 1.4 92.0903
      vertex 1.99941 2.8 90.3903
      vertex 0 1.4 90.3903
    endloop
  endfacet
  facet normal 0 0 -1
    outer loop
      vertex 22.4 2.8 90.3903
      vertex 22.4 0 90.3903
      vertex 1.99941 2.8 90.3903
    endloop
  endfacet
  facet normal 0 0 -1
    outer loop
      vertex 1.99941 2.8 90.3903
      vertex 22.4 0 90.3903
      vertex 1.99941 0 90.3903
    endloop
  endfacet
  facet normal 0 0 -1
    outer loop
      vertex 1.99941 2.8 90.3903
      vertex 1.99941 0 90.3903
      vertex 0 1.4 90.3903
    endloop
  endfacet
  facet normal -1 0 0
    outer loop
      vertex 22.4 2.8 90.3903
      vertex 22.4 2.8 89.0355
      vertex 22.4 0 90.3903
    endloop
  endfacet
  facet normal -1 0 0
    outer loop
      vertex 22.4 0 90.3903
      vertex 22.4 2.8 89.0355
      vertex 22.4 0 89.0355
    endloop
  endfacet
  facet normal 0 0 1
    outer loop
      vertex 1.99941 0 89.0355
      vertex 22.4 0 89.0355
      vertex 22.4 2.8 89.0355
    endloop
  endfacet
  facet normal 0 0 1
    outer loop
      vertex 0 1.4 89.0355
      vertex 1.99941 0 89.0355
      vertex 1.99941 2.8 89.0355
    endloop
  endfacet
  facet normal 0 0 1
    outer loop
      vertex 1.99941 2.8 89.0355
      vertex 1.99941 0 89.0355
      vertex 22.4 2.8 89.0355
    endloop
  endfacet
  facet normal -0.573576 0.819152 0
    outer loop
      vertex 1.99941 2.8 89.0355
      vertex 1.99941 2.8 87.3355
      vertex 0 1.4 89.0355
    endloop
  endfacet
  facet normal -0.573576 0.819152 0
    outer loop
      vertex 0 1.4 89.0355
      vertex 1.99941 2.8 87.3355
      vertex 0 1.4 87.3355
    endloop
  endfacet
  facet normal 0 0 -1
    outer loop
      vertex 22.4 2.8 87.3355
      vertex 22.4 0 87.3355
      vertex 1.99941 2.8 87.3355
    endloop
  endfacet
  facet normal 0 0 -1
    outer loop
      vertex 1.99941 2.8 87.3355
      vertex 22.4 0 87.3355
      vertex 1.99941 0 87.3355
    endloop
  endfacet
  facet normal 0 0 -1
    outer loop
      vertex 1.99941 2.8 87.3355
      vertex 1.99941 0 87.3355
      vertex 0 1.4 87.3355
    endloop
  endfacet
  facet normal -1 0 0
    outer loop
      vertex 22.4 2.8 87.3355
      vertex 22.4 2.8 85.9806
      vertex 22.4 0 87.3355
    endloop
  endfacet
  facet normal -1 0 0
    outer loop
      vertex 22.4 0 87.3355
      vertex 22.4 2.8 85.9806
      vertex 22.4 0 85.9806
    endloop
  endfacet
  facet normal 0 0 1
    outer loop
      vertex 1.99941 0 85.9806
      vertex 22.4 0 85.9806
      vertex 22.4 2.8 85.9806
    endloop
  endfacet
  facet normal 0 0 1
    outer loop
      vertex 0 1.4 85.9806
      vertex 1.99941 0 85.9806
      vertex 1.99941 2.8 85.9806
    endloop
  endfacet
  facet normal 0 0 1
    outer loop
      vertex 1.99941 2.8 85.9806
      vertex 1.99941 0 85.9806
      vertex 22.4 2.8 85.9806
    endloop
  endfacet
  facet normal -0.573576 0.819152 0
    outer loop
      vertex 1.99941 2.8 85.9806
      vertex 1.99941 2.8 84.2806
      vertex 0 1.4 85.9806
    endloop
  endfacet
  facet normal -0.573576 0.819152 0
    outer loop
      vertex 0 1.4 85.9806
      vertex 1.99941 2.8 84.2806
      vertex 0 1.4 84.2806
    endloop
  endfacet
  facet normal 0 0 -1
    outer loop
      vertex 22.4 2.8 84.2806
      vertex 22.4 0 84.2806
      vertex 1.99941 2.8 84.2806
    endloop
  endfacet
  facet normal 0 0 -1
    outer loop
      vertex 1.99941 2.8 84.2806
      vertex 22.4 0 84.2806
      vertex 1.99941 0 84.2806
    endloop
  endfacet
  facet normal 0 0 -1
    outer loop
      vertex 1.99941 2.8 84.2806
      vertex 1.99941 0 84.2806
      vertex 0 1.4 84.2806
    endloop
  endfacet
  facet normal -1 0 0
    outer loop
      vertex 22.4 2.8 84.2806
      vertex 22.4 2.8 82.9258
      vertex 22.4 0 84.2806
    endloop
  endfacet
  facet normal -1 0 0
    outer loop
      vertex 22.4 0 84.2806
      vertex 22.4 2.8 82.9258
      vertex 22.4 0 82.9258
    endloop
  endfacet
  facet normal 0 0 1
    outer loop
      vertex 1.99941 0 82.9258
      vertex 22.4 0 82.9258
      vertex 22.4 2.8 82.9258
    endloop
  endfacet
  facet normal 0 0 1
    outer loop
      vertex 0 1.4 82.9258
      vertex 1.99941 0 82.9258
      vertex 1.99941 2.8 82.9258
    endloop
  endfacet
  facet normal 0 0 1
    outer loop
      vertex 1.99941 2.8 82.9258
      vertex 1.99941 0 82.9258
      vertex 22.4 2.8 82.9258
    endloop
  endfacet
  facet normal -0.573576 0.819152 0
    outer loop
      vertex 1.99941 2.8 82.9258
      vertex 1.99941 2.8 81.2258
      vertex 0 1.4 82.9258
    endloop
  endfacet
  facet normal -0.573576 0.819152 0
    outer loop
      vertex 0 1.4 82.9258
      vertex 1.99941 2.8 81.2258
      vertex 0 1.4 81.2258
    endloop
  endfacet
  facet normal 0 0 -1
    outer loop
      vertex 22.4 2.8 81.2258
      vertex 22.4 0 81.2258
      vertex 1.99941 2.8 81.2258
    endloop
  endfacet
  facet normal 0 0 -1
    outer loop
      vertex 1.99941 2.8 81.2258
      vertex 22.4 0 81.2258
      vertex 1.99941 0 81.2258
    endloop
  endfacet
  facet normal 0 0 -1
    outer loop
      vertex 1.99941 2.8 81.2258
      vertex 1.99941 0 81.2258
      vertex 0 1.4 81.2258
    endloop
  endfacet
  facet normal -1 0 0
    outer loop
      vertex 22.4 2.8 81.2258
      vertex 22.4 2.8 79.871
      vertex 22.4 0 81.2258
    endloop
  endfacet
  facet normal -1 0 0
    outer loop
      vertex 22.4 0 81.2258
      vertex 22.4 2.8 79.871
      vertex 22.4 0 79.871
    endloop
  endfacet
  facet normal 0 0 1
    outer loop
      vertex 1.99941 0 79.871
      vertex 22.4 0 79.871
      vertex 22.4 2.8 79.871
    endloop
  endfacet
  facet normal 0 0 1
    outer loop
      vertex 0 1.4 79.871
      vertex 1.99941 0 79.871
      vertex 1.99941 2.8 79.871
    endloop
  endfacet
  facet normal 0 0 1
    outer loop
      vertex 1.99941 2.8 79.871
      vertex 1.99941 0 79.871
      vertex 22.4 2.8 79.871
    endloop
  endfacet
  facet normal -0.573576 0.819152 0
    outer loop
      vertex 1.99941 2.8 79.871
      vertex 1.99941 2.8 78.171
      vertex 0 1.4 79.871
    endloop
  endfacet
  facet normal -0.573576 0.819152 0
    outer loop
      vertex 0 1.4 79.871
      vertex 1.99941 2.8 78.171
      vertex 0 1.4 78.171
    endloop
  endfacet
  facet normal 0 0 -1
    outer loop
      vertex 22.4 2.8 78.171
      vertex 22.4 0 78.171
      vertex 1.99941 2.8 78.171
    endloop
  endfacet
  facet normal 0 0 -1
    outer loop
      vertex 1.99941 2.8 78.171
      vertex 22.4 0 78.171
      vertex 1.99941 0 78.171
    endloop
  endfacet
  facet normal 0 0 -1
    outer loop
      vertex 1.99941 2.8 78.171
      vertex 1.99941 0 78.171
      vertex 0 1.4 78.171
    endloop
  endfacet
  facet normal -1 0 0
    outer loop
      vertex 22.4 2.8 78.171
      vertex 22.4 2.8 76.8161
      vertex 22.4 0 78.171
    endloop
  endfacet
  facet normal -1 0 0
    outer loop
      vertex 22.4 0 78.171
      vertex 22.4 2.8 76.8161
      vertex 22.4 0 76.8161
    endloop
  endfacet
  facet normal 0 0 1
    outer loop
      vertex 1.99941 0 76.8161
      vertex 22.4 0 76.8161
      vertex 22.4 2.8 76.8161
    endloop
  endfacet
  facet normal 0 0 1
    outer loop
      vertex 0 1.4 76.8161
      vertex 1.99941 0 76.8161
      vertex 1.99941 2.8 76.8161
    endloop
  endfacet
  facet normal 0 0 1
    outer loop
      vertex 1.99941 2.8 76.8161
      vertex 1.99941 0 76.8161
      vertex 22.4 2.8 76.8161
    endloop
  endfacet
  facet normal -0.573576 0.819152 0
    outer loop
      vertex 1.99941 2.8 76.8161
      vertex 1.99941 2.8 75.1161
      vertex 0 1.4 76.8161
    endloop
  endfacet
  facet normal -0.573576 0.819152 0
    outer loop
      vertex 0 1.4 76.8161
      vertex 1.99941 2.8 75.1161
      vertex 0 1.4 75.1161
    endloop
  endfacet
  facet normal 0 0 -1
    outer loop
      vertex 22.4 2.8 75.1161
      vertex 22.4 0 75.1161
      vertex 1.99941 2.8 75.1161
    endloop
  endfacet
  facet normal 0 0 -1
    outer loop
      vertex 1.99941 2.8 75.1161
      vertex 22.4 0 75.1161
      vertex 1.99941 0 75.1161
    endloop
  endfacet
  facet normal 0 0 -1
    outer loop
      vertex 1.99941 2.8 75.1161
      vertex 1.99941 0 75.1161
      vertex 0 1.4 75.1161
    endloop
  endfacet
  facet normal -1 0 0
    outer loop
      vertex 22.4 2.8 75.1161
      vertex 22.4 2.8 73.7613
      vertex 22.4 0 75.1161
    endloop
  endfacet
  facet normal -1 0 0
    outer loop
      vertex 22.4 0 75.1161
      vertex 22.4 2.8 73.7613
      vertex 22.4 0 73.7613
    endloop
  endfacet
  facet normal 0 0 1
    outer loop
      vertex 1.99941 0 73.7613
      vertex 22.4 0 73.7613
      vertex 22.4 2.8 73.7613
    endloop
  endfacet
  facet normal 0 0 1
    outer loop
      vertex 0 1.4 73.7613
      vertex 1.99941 0 73.7613
      vertex 1.99941 2.8 73.7613
    endloop
  endfacet
  facet normal 0 0 1
    outer loop
      vertex 1.99941 2.8 73.7613
      vertex 1.99941 0 73.7613
      vertex 22.4 2.8 73.7613
    endloop
  endfacet
  facet normal -0.573576 0.819152 0
    outer loop
      vertex 1.99941 2.8 73.7613
      vertex 1.99941 2.8 72.0613
      vertex 0 1.4 73.7613
    endloop
  endfacet
  facet normal -0.573576 0.819152 0
    outer loop
      vertex 0 1.4 73.7613
      vertex 1.99941 2.8 72.0613
      vertex 0 1.4 72.0613
    endloop
  endfacet
  facet normal 0 0 -1
    outer loop
      vertex 22.4 2.8 72.0613
      vertex 22.4 0 72.0613
      vertex 1.99941 2.8 72.0613
    endloop
  endfacet
  facet normal 0 0 -1
    outer loop
      vertex 1.99941 2.8 72.0613
      vertex 22.4 0 72.0613
      vertex 1.99941 0 72.0613
    endloop
  endfacet
  facet normal 0 0 -1
    outer loop
      vertex 1.99941 2.8 72.0613
      vertex 1.99941 0 72.0613
      vertex 0 1.4 72.0613
    endloop
  endfacet
  facet normal -1 0 0
    outer loop
      vertex 22.4 2.8 72.0613
      vertex 22.4 2.8 70.7065
      vertex 22.4 0 72.0613
    endloop
  endfacet
  facet normal -1 0 0
    outer loop
      vertex 22.4 0 72.0613
      vertex 22.4 2.8 70.7065
      vertex 22.4 0 70.7065
    endloop
  endfacet
  facet normal 0 0 1
    outer loop
      vertex 1.99941 0 70.7065
      vertex 22.4 0 70.7065
      vertex 22.4 2.8 70.7065
    endloop
  endfacet
  facet normal 0 0 1
    outer loop
      vertex 0 1.4 70.7065
      vertex 1.99941 0 70.7065
      vertex 1.99941 2.8 70.7065
    endloop
  endfacet
  facet normal 0 0 1
    outer loop
      vertex 1.99941 2.8 70.7065
      vertex 1.99941 0 70.7065
      vertex 22.4 2.8 70.7065
    endloop
  endfacet
  facet normal -0.573576 0.819152 0
    outer loop
      vertex 1.99941 2.8 70.7065
      vertex 1.99941 2.8 69.0065
      vertex 0 1.4 70.7065
    endloop
  endfacet
  facet normal -0.573576 0.819152 0
    outer loop
      vertex 0 1.4 70.7065
      vertex 1.99941 2.8 69.0065
      vertex 0 1.4 69.0065
    endloop
  endfacet
  facet normal 0 0 -1
    outer loop
      vertex 22.4 2.8 69.0065
      vertex 22.4 0 69.0065
      vertex 1.99941 2.8 69.0065
    endloop
  endfacet
  facet normal 0 0 -1
    outer loop
      vertex 1.99941 2.8 69.0065
      vertex 22.4 0 69.0065
      vertex 1.99941 0 69.0065
    endloop
  endfacet
  facet normal 0 0 -1
    outer loop
      vertex 1.99941 2.8 69.0065
      vertex 1.99941 0 69.0065
      vertex 0 1.4 69.0065
    endloop
  endfacet
  facet normal -1 0 0
    outer loop
      vertex 22.4 2.8 69.0065
      vertex 22.4 2.8 67.6516
      vertex 22.4 0 69.0065
    endloop
  endfacet
  facet normal -1 0 0
    outer loop
      vertex 22.4 0 69.0065
      vertex 22.4 2.8 67.6516
      vertex 22.4 0 67.6516
    endloop
  endfacet
  facet normal 0 0 1
    outer loop
      vertex 1.99941 0 67.6516
      vertex 22.4 0 67.6516
      vertex 22.4 2.8 67.6516
    endloop
  endfacet
  facet normal 0 0 1
    outer loop
      vertex 0 1.4 67.6516
      vertex 1.99941 0 67.6516
      vertex 1.99941 2.8 67.6516
    endloop
  endfacet
  facet normal 0 0 1
    outer loop
      vertex 1.99941 2.8 67.6516
      vertex 1.99941 0 67.6516
      vertex 22.4 2.8 67.6516
    endloop
  endfacet
  facet normal -0.573576 0.819152 0
    outer loop
      vertex 1.99941 2.8 67.6516
      vertex 1.99941 2.8 65.9516
      vertex 0 1.4 67.6516
    endloop
  endfacet
  facet normal -0.573576 0.819152 0
    outer loop
      vertex 0 1.4 67.6516
      vertex 1.99941 2.8 65.9516
      vertex 0 1.4 65.9516
    endloop
  endfacet
  facet normal 0 0 -1
    outer loop
      vertex 22.4 2.8 65.9516
      vertex 22.4 0 65.9516
      vertex 1.99941 2.8 65.9516
    endloop
  endfacet
  facet normal 0 0 -1
    outer loop
      vertex 1.99941 2.8 65.9516
      vertex 22.4 0 65.9516
      vertex 1.99941 0 65.9516
    endloop
  endfacet
  facet normal 0 0 -1
    outer loop
      vertex 1.99941 2.8 65.9516
      vertex 1.99941 0 65.9516
      vertex 0 1.4 65.9516
    endloop
  endfacet
  facet normal -1 0 0
    outer loop
      vertex 22.4 2.8 65.9516
      vertex 22.4 2.8 64.5968
      vertex 22.4 0 65.9516
    endloop
  endfacet
  facet normal -1 0 0
    outer loop
      vertex 22.4 0 65.9516
      vertex 22.4 2.8 64.5968
      vertex 22.4 0 64.5968
    endloop
  endfacet
  facet normal 0 0 1
    outer loop
      vertex 1.99941 0 64.5968
      vertex 22.4 0 64.5968
      vertex 22.4 2.8 64.5968
    endloop
  endfacet
  facet normal 0 0 1
    outer loop
      vertex 0 1.4 64.5968
      vertex 1.99941 0 64.5968
      vertex 1.99941 2.8 64.5968
    endloop
  endfacet
  facet normal 0 0 1
    outer loop
      vertex 1.99941 2.8 64.5968
      vertex 1.99941 0 64.5968
      vertex 22.4 2.8 64.5968
    endloop
  endfacet
  facet normal -0.573576 0.819152 0
    outer loop
      vertex 1.99941 2.8 64.5968
      vertex 1.99941 2.8 62.8968
      vertex 0 1.4 64.5968
    endloop
  endfacet
  facet normal -0.573576 0.819152 0
    outer loop
      vertex 0 1.4 64.5968
      vertex 1.99941 2.8 62.8968
      vertex 0 1.4 62.8968
    endloop
  endfacet
  facet normal 0 0 -1
    outer loop
      vertex 22.4 2.8 62.8968
      vertex 22.4 0 62.8968
      vertex 1.99941 2.8 62.8968
    endloop
  endfacet
  facet normal 0 0 -1
    outer loop
      vertex 1.99941 2.8 62.8968
      vertex 22.4 0 62.8968
      vertex 1.99941 0 62.8968
    endloop
  endfacet
  facet normal 0 0 -1
    outer loop
      vertex 1.99941 2.8 62.8968
      vertex 1.99941 0 62.8968
      vertex 0 1.4 62.8968
    endloop
  endfacet
  facet normal -1 0 0
    outer loop
      vertex 22.4 2.8 62.8968
      vertex 22.4 2.8 61.5419
      vertex 22.4 0 62.8968
    endloop
  endfacet
  facet normal -1 0 0
    outer loop
      vertex 22.4 0 62.8968
      vertex 22.4 2.8 61.5419
      vertex 22.4 0 61.5419
    endloop
  endfacet
  facet normal 0 0 1
    outer loop
      vertex 1.99941 0 61.5419
      vertex 22.4 0 61.5419
      vertex 22.4 2.8 61.5419
    endloop
  endfacet
  facet normal 0 0 1
    outer loop
      vertex 0 1.4 61.5419
      vertex 1.99941 0 61.5419
      vertex 1.99941 2.8 61.5419
    endloop
  endfacet
  facet normal 0 0 1
    outer loop
      vertex 1.99941 2.8 61.5419
      vertex 1.99941 0 61.5419
      vertex 22.4 2.8 61.5419
    endloop
  endfacet
  facet normal -0.573576 0.819152 0
    outer loop
      vertex 1.99941 2.8 61.5419
      vertex 1.99941 2.8 59.8419
      vertex 0 1.4 61.5419
    endloop
  endfacet
  facet normal -0.573576 0.819152 0
    outer loop
      vertex 0 1.4 61.5419
      vertex 1.99941 2.8 59.8419
      vertex 0 1.4 59.8419
    endloop
  endfacet
  facet normal 0 0 -1
    outer loop
      vertex 22.4 2.8 59.8419
      vertex 22.4 0 59.8419
      vertex 1.99941 2.8 59.8419
    endloop
  endfacet
  facet normal 0 0 -1
    outer loop
      vertex 1.99941 2.8 59.8419
      vertex 22.4 0 59.8419
      vertex 1.99941 0 59.8419
    endloop
  endfacet
  facet normal 0 0 -1
    outer loop
      vertex 1.99941 2.8 59.8419
      vertex 1.99941 0 59.8419
      vertex 0 1.4 59.8419
    endloop
  endfacet
  facet normal -1 0 0
    outer loop
      vertex 22.4 2.8 59.8419
      vertex 22.4 2.8 58.4871
      vertex 22.4 0 59.8419
    endloop
  endfacet
  facet normal -1 0 0
    outer loop
      vertex 22.4 0 59.8419
      vertex 22.4 2.8 58.4871
      vertex 22.4 0 58.4871
    endloop
  endfacet
  facet normal 0 0 1
    outer loop
      vertex 1.99941 0 58.4871
      vertex 22.4 0 58.4871
      vertex 22.4 2.8 58.4871
    endloop
  endfacet
  facet normal 0 0 1
    outer loop
      vertex 0 1.4 58.4871
      vertex 1.99941 0 58.4871
      vertex 1.99941 2.8 58.4871
    endloop
  endfacet
  facet normal 0 0 1
    outer loop
      vertex 1.99941 2.8 58.4871
      vertex 1.99941 0 58.4871
      vertex 22.4 2.8 58.4871
    endloop
  endfacet
  facet normal -0.573576 0.819152 0
    outer loop
      vertex 1.99941 2.8 58.4871
      vertex 1.99941 2.8 56.7871
      vertex 0 1.4 58.4871
    endloop
  endfacet
  facet normal -0.573576 0.819152 0
    outer loop
      vertex 0 1.4 58.4871
      vertex 1.99941 2.8 56.7871
      vertex 0 1.4 56.7871
    endloop
  endfacet
  facet normal 0 0 -1
    outer loop
      vertex 22.4 2.8 56.7871
      vertex 22.4 0 56.7871
      vertex 1.99941 2.8 56.7871
    endloop
  endfacet
  facet normal 0 0 -1
    outer loop
      vertex 1.99941 2.8 56.7871
      vertex 22.4 0 56.7871
      vertex 1.99941 0 56.7871
    endloop
  endfacet
  facet normal 0 0 -1
    outer loop
      vertex 1.99941 2.8 56.7871
      vertex 1.99941 0 56.7871
      vertex 0 1.4 56.7871
    endloop
  endfacet
  facet normal -1 0 0
    outer loop
      vertex 22.4 2.8 56.7871
      vertex 22.4 2.8 55.4323
      vertex 22.4 0 56.7871
    endloop
  endfacet
  facet normal -1 0 0
    outer loop
      vertex 22.4 0 56.7871
      vertex 22.4 2.8 55.4323
      vertex 22.4 0 55.4323
    endloop
  endfacet
  facet normal 0 0 1
    outer loop
      vertex 1.99941 0 55.4323
      vertex 22.4 0 55.4323
      vertex 22.4 2.8 55.4323
    endloop
  endfacet
  facet normal 0 0 1
    outer loop
      vertex 0 1.4 55.4323
      vertex 1.99941 0 55.4323
      vertex 1.99941 2.8 55.4323
    endloop
  endfacet
  facet normal 0 0 1
    outer loop
      vertex 1.99941 2.8 55.4323
      vertex 1.99941 0 55.4323
      vertex 22.4 2.8 55.4323
    endloop
  endfacet
  facet normal -0.573576 0.819152 0
    outer loop
      vertex 1.99941 2.8 55.4323
      vertex 1.99941 2.8 53.7323
      vertex 0 1.4 55.4323
    endloop
  endfacet
  facet normal -0.573576 0.819152 0
    outer loop
      vertex 0 1.4 55.4323
      vertex 1.99941 2.8 53.7323
      vertex 0 1.4 53.7323
    endloop
  endfacet
  facet normal 0 0 -1
    outer loop
      vertex 22.4 2.8 53.7323
      vertex 22.4 0 53.7323
      vertex 1.99941 2.8 53.7323
    endloop
  endfacet
  facet normal 0 0 -1
    outer loop
      vertex 1.99941 2.8 53.7323
      vertex 22.4 0 53.7323
      vertex 1.99941 0 53.7323
    endloop
  endfacet
  facet normal 0 0 -1
    outer loop
      vertex 1.99941 2.8 53.7323
      vertex 1.99941 0 53.7323
      vertex 0 1.4 53.7323
    endloop
  endfacet
  facet normal -1 0 0
    outer loop
      vertex 22.4 2.8 53.7323
      vertex 22.4 2.8 52.3774
      vertex 22.4 0 53.7323
    endloop
  endfacet
  facet normal -1 0 0
    outer loop
      vertex 22.4 0 53.7323
      vertex 22.4 2.8 52.3774
      vertex 22.4 0 52.3774
    endloop
  endfacet
  facet normal 0 0 1
    outer loop
      vertex 1.99941 0 52.3774
      vertex 22.4 0 52.3774
      vertex 22.4 2.8 52.3774
    endloop
  endfacet
  facet normal 0 0 1
    outer loop
      vertex 0 1.4 52.3774
      vertex 1.99941 0 52.3774
      vertex 1.99941 2.8 52.3774
    endloop
  endfacet
  facet normal 0 0 1
    outer loop
      vertex 1.99941 2.8 52.3774
      vertex 1.99941 0 52.3774
      vertex 22.4 2.8 52.3774
    endloop
  endfacet
  facet normal -0.573576 0.819152 0
    outer loop
      vertex 1.99941 2.8 52.3774
      vertex 1.99941 2.8 50.6774
      vertex 0 1.4 52.3774
    endloop
  endfacet
  facet normal -0.573576 0.819152 0
    outer loop
      vertex 0 1.4 52.3774
      vertex 1.99941 2.8 50.6774
      vertex 0 1.4 50.6774
    endloop
  endfacet
  facet normal 0 0 -1
    outer loop
      vertex 22.4 2.8 50.6774
      vertex 22.4 0 50.6774
      vertex 1.99941 2.8 50.6774
    endloop
  endfacet
  facet normal 0 0 -1
    outer loop
      vertex 1.99941 2.8 50.6774
      vertex 22.4 0 50.6774
      vertex 1.99941 0 50.6774
    endloop
  endfacet
  facet normal 0 0 -1
    outer loop
      vertex 1.99941 2.8 50.6774
      vertex 1.99941 0 50.6774
      vertex 0 1.4 50.6774
    endloop
  endfacet
  facet normal -1 0 0
    outer loop
      vertex 22.4 2.8 50.6774
      vertex 22.4 2.8 49.3226
      vertex 22.4 0 50.6774
    endloop
  endfacet
  facet normal -1 0 0
    outer loop
      vertex 22.4 0 50.6774
      vertex 22.4 2.8 49.3226
      vertex 22.4 0 49.3226
    endloop
  endfacet
  facet normal 0 0 1
    outer loop
      vertex 1.99941 0 49.3226
      vertex 22.4 0 49.3226
      vertex 22.4 2.8 49.3226
    endloop
  endfacet
  facet normal 0 0 1
    outer loop
      vertex 0 1.4 49.3226
      vertex 1.99941 0 49.3226
      vertex 1.99941 2.8 49.3226
    endloop
  endfacet
  facet normal 0 0 1
    outer loop
      vertex 1.99941 2.8 49.3226
      vertex 1.99941 0 49.3226
      vertex 22.4 2.8 49.3226
    endloop
  endfacet
  facet normal -0.573576 0.819152 0
    outer loop
      vertex 1.99941 2.8 49.3226
      vertex 1.99941 2.8 47.6226
      vertex 0 1.4 49.3226
    endloop
  endfacet
  facet normal -0.573576 0.819152 0
    outer loop
      vertex 0 1.4 49.3226
      vertex 1.99941 2.8 47.6226
      vertex 0 1.4 47.6226
    endloop
  endfacet
  facet normal 0 0 -1
    outer loop
      vertex 22.4 2.8 47.6226
      vertex 22.4 0 47.6226
      vertex 1.99941 2.8 47.6226
    endloop
  endfacet
  facet normal 0 0 -1
    outer loop
      vertex 1.99941 2.8 47.6226
      vertex 22.4 0 47.6226
      vertex 1.99941 0 47.6226
    endloop
  endfacet
  facet normal 0 0 -1
    outer loop
      vertex 1.99941 2.8 47.6226
      vertex 1.99941 0 47.6226
      vertex 0 1.4 47.6226
    endloop
  endfacet
  facet normal -1 0 0
    outer loop
      vertex 22.4 2.8 47.6226
      vertex 22.4 2.8 46.2677
      vertex 22.4 0 47.6226
    endloop
  endfacet
  facet normal -1 0 0
    outer loop
      vertex 22.4 0 47.6226
      vertex 22.4 2.8 46.2677
      vertex 22.4 0 46.2677
    endloop
  endfacet
  facet normal 0 0 1
    outer loop
      vertex 1.99941 0 46.2677
      vertex 22.4 0 46.2677
      vertex 22.4 2.8 46.2677
    endloop
  endfacet
  facet normal 0 0 1
    outer loop
      vertex 0 1.4 46.2677
      vertex 1.99941 0 46.2677
      vertex 1.99941 2.8 46.2677
    endloop
  endfacet
  facet normal 0 0 1
    outer loop
      vertex 1.99941 2.8 46.2677
      vertex 1.99941 0 46.2677
      vertex 22.4 2.8 46.2677
    endloop
  endfacet
  facet normal -0.573576 0.819152 0
    outer loop
      vertex 1.99941 2.8 46.2677
      vertex 1.99941 2.8 44.5677
      vertex 0 1.4 46.2677
    endloop
  endfacet
  facet normal -0.573576 0.819152 0
    outer loop
      vertex 0 1.4 46.2677
      vertex 1.99941 2.8 44.5677
      vertex 0 1.4 44.5677
    endloop
  endfacet
  facet normal 0 0 -1
    outer loop
      vertex 22.4 2.8 44.5677
      vertex 22.4 0 44.5677
      vertex 1.99941 2.8 44.5677
    endloop
  endfacet
  facet normal 0 0 -1
    outer loop
      vertex 1.99941 2.8 44.5677
      vertex 22.4 0 44.5677
      vertex 1.99941 0 44.5677
    endloop
  endfacet
  facet normal 0 0 -1
    outer loop
      vertex 1.99941 2.8 44.5677
      vertex 1.99941 0 44.5677
      vertex 0 1.4 44.5677
    endloop
  endfacet
  facet normal -1 0 0
    outer loop
      vertex 22.4 2.8 44.5677
      vertex 22.4 2.8 43.2129
      vertex 22.4 0 44.5677
    endloop
  endfacet
  facet normal -1 0 0
    outer loop
      vertex 22.4 0 44.5677
      vertex 22.4 2.8 43.2129
      vertex 22.4 0 43.2129
    endloop
  endfacet
  facet normal 0 0 1
    outer loop
      vertex 1.99941 0 43.2129
      vertex 22.4 0 43.2129
      vertex 22.4 2.8 43.2129
    endloop
  endfacet
  facet normal 0 0 1
    outer loop
      vertex 0 1.4 43.2129
      vertex 1.99941 0 43.2129
      vertex 1.99941 2.8 43.2129
    endloop
  endfacet
  facet normal 0 0 1
    outer loop
      vertex 1.99941 2.8 43.2129
      vertex 1.99941 0 43.2129
      vertex 22.4 2.8 43.2129
    endloop
  endfacet
  facet normal -0.573576 0.819152 0
    outer loop
      vertex 1.99941 2.8 43.2129
      vertex 1.99941 2.8 41.5129
      vertex 0 1.4 43.2129
    endloop
  endfacet
  facet normal -0.573576 0.819152 0
    outer loop
      vertex 0 1.4 43.2129
      vertex 1.99941 2.8 41.5129
      vertex 0 1.4 41.5129
    endloop
  endfacet
  facet normal 0 0 -1
    outer loop
      vertex 22.4 2.8 41.5129
      vertex 22.4 0 41.5129
      vertex 1.99941 2.8 41.5129
    endloop
  endfacet
  facet normal 0 0 -1
    outer loop
      vertex 1.99941 2.8 41.5129
      vertex 22.4 0 41.5129
      vertex 1.99941 0 41.5129
    endloop
  endfacet
  facet normal 0 0 -1
    outer loop
      vertex 1.99941 2.8 41.5129
      vertex 1.99941 0 41.5129
      vertex 0 1.4 41.5129
    endloop
  endfacet
  facet normal -1 0 0
    outer loop
      vertex 22.4 2.8 41.5129
      vertex 22.4 2.8 40.1581
      vertex 22.4 0 41.5129
    endloop
  endfacet
  facet normal -1 0 0
    outer loop
      vertex 22.4 0 41.5129
      vertex 22.4 2.8 40.1581
      vertex 22.4 0 40.1581
    endloop
  endfacet
  facet normal 0 0 1
    outer loop
      vertex 1.99941 0 40.1581
      vertex 22.4 0 40.1581
      vertex 22.4 2.8 40.1581
    endloop
  endfacet
  facet normal 0 0 1
    outer loop
      vertex 0 1.4 40.1581
      vertex 1.99941 0 40.1581
      vertex 1.99941 2.8 40.1581
    endloop
  endfacet
  facet normal 0 0 1
    outer loop
      vertex 1.99941 2.8 40.1581
      vertex 1.99941 0 40.1581
      vertex 22.4 2.8 40.1581
    endloop
  endfacet
  facet normal -0.573576 0.819152 0
    outer loop
      vertex 1.99941 2.8 40.1581
      vertex 1.99941 2.8 38.4581
      vertex 0 1.4 40.1581
    endloop
  endfacet
  facet normal -0.573576 0.819152 0
    outer loop
      vertex 0 1.4 40.1581
      vertex 1.99941 2.8 38.4581
      vertex 0 1.4 38.4581
    endloop
  endfacet
  facet normal 0 0 -1
    outer loop
      vertex 22.4 2.8 38.4581
      vertex 22.4 0 38.4581
      vertex 1.99941 2.8 38.4581
    endloop
  endfacet
  facet normal 0 0 -1
    outer loop
      vertex 1.99941 2.8 38.4581
      vertex 22.4 0 38.4581
      vertex 1.99941 0 38.4581
    endloop
  endfacet
  facet normal 0 0 -1
    outer loop
      vertex 1.99941 2.8 38.4581
      vertex 1.99941 0 38.4581
      vertex 0 1.4 38.4581
    endloop
  endfacet
  facet normal -1 0 0
    outer loop
      vertex 22.4 2.8 38.4581
      vertex 22.4 2.8 37.1032
      vertex 22.4 0 38.4581
    endloop
  endfacet
  facet normal -1 0 0
    outer loop
      vertex 22.4 0 38.4581
      vertex 22.4 2.8 37.1032
      vertex 22.4 0 37.1032
    endloop
  endfacet
  facet normal 0 0 1
    outer loop
      vertex 1.99941 0 37.1032
      vertex 22.4 0 37.1032
      vertex 22.4 2.8 37.1032
    endloop
  endfacet
  facet normal 0 0 1
    outer loop
      vertex 0 1.4 37.1032
      vertex 1.99941 0 37.1032
      vertex 1.99941 2.8 37.1032
    endloop
  endfacet
  facet normal 0 0 1
    outer loop
      vertex 1.99941 2.8 37.1032
      vertex 1.99941 0 37.1032
      vertex 22.4 2.8 37.1032
    endloop
  endfacet
  facet normal -0.573576 0.819152 0
    outer loop
      vertex 1.99941 2.8 37.1032
      vertex 1.99941 2.8 35.4032
      vertex 0 1.4 37.1032
    endloop
  endfacet
  facet normal -0.573576 0.819152 0
    outer loop
      vertex 0 1.4 37.1032
      vertex 1.99941 2.8 35.4032
      vertex 0 1.4 35.4032
    endloop
  endfacet
  facet normal 0 0 -1
    outer loop
      vertex 22.4 2.8 35.4032
      vertex 22.4 0 35.4032
      vertex 1.99941 2.8 35.4032
    endloop
  endfacet
  facet normal 0 0 -1
    outer loop
      vertex 1.99941 2.8 35.4032
      vertex 22.4 0 35.4032
      vertex 1.99941 0 35.4032
    endloop
  endfacet
  facet normal 0 0 -1
    outer loop
      vertex 1.99941 2.8 35.4032
      vertex 1.99941 0 35.4032
      vertex 0 1.4 35.4032
    endloop
  endfacet
  facet normal -1 0 0
    outer loop
      vertex 22.4 2.8 35.4032
      vertex 22.4 2.8 34.0484
      vertex 22.4 0 35.4032
    endloop
  endfacet
  facet normal -1 0 0
    outer loop
      vertex 22.4 0 35.4032
      vertex 22.4 2.8 34.0484
      vertex 22.4 0 34.0484
    endloop
  endfacet
  facet normal 0 0 1
    outer loop
      vertex 1.99941 0 34.0484
      vertex 22.4 0 34.0484
      vertex 22.4 2.8 34.0484
    endloop
  endfacet
  facet normal 0 0 1
    outer loop
      vertex 0 1.4 34.0484
      vertex 1.99941 0 34.0484
      vertex 1.99941 2.8 34.0484
    endloop
  endfacet
  facet normal 0 0 1
    outer loop
      vertex 1.99941 2.8 34.0484
      vertex 1.99941 0 34.0484
      vertex 22.4 2.8 34.0484
    endloop
  endfacet
  facet normal -0.573576 0.819152 0
    outer loop
      vertex 1.99941 2.8 34.0484
      vertex 1.99941 2.8 32.3484
      vertex 0 1.4 34.0484
    endloop
  endfacet
  facet normal -0.573576 0.819152 0
    outer loop
      vertex 0 1.4 34.0484
      vertex 1.99941 2.8 32.3484
      vertex 0 1.4 32.3484
    endloop
  endfacet
  facet normal 0 0 -1
    outer loop
      vertex 22.4 2.8 32.3484
      vertex 22.4 0 32.3484
      vertex 1.99941 2.8 32.3484
    endloop
  endfacet
  facet normal 0 0 -1
    outer loop
      vertex 1.99941 2.8 32.3484
      vertex 22.4 0 32.3484
      vertex 1.99941 0 32.3484
    endloop
  endfacet
  facet normal 0 0 -1
    outer loop
      vertex 1.99941 2.8 32.3484
      vertex 1.99941 0 32.3484
      vertex 0 1.4 32.3484
    endloop
  endfacet
  facet normal -1 0 0
    outer loop
      vertex 22.4 2.8 32.3484
      vertex 22.4 2.8 30.9935
      vertex 22.4 0 32.3484
    endloop
  endfacet
  facet normal -1 0 0
    outer loop
      vertex 22.4 0 32.3484
      vertex 22.4 2.8 30.9935
      vertex 22.4 0 30.9935
    endloop
  endfacet
  facet normal 0 0 1
    outer loop
      vertex 1.99941 0 30.9935
      vertex 22.4 0 30.9935
      vertex 22.4 2.8 30.9935
    endloop
  endfacet
  facet normal 0 0 1
    outer loop
      vertex 0 1.4 30.9935
      vertex 1.99941 0 30.9935
      vertex 1.99941 2.8 30.9935
    endloop
  endfacet
  facet normal 0 0 1
    outer loop
      vertex 1.99941 2.8 30.9935
      vertex 1.99941 0 30.9935
      vertex 22.4 2.8 30.9935
    endloop
  endfacet
  facet normal -0.573576 0.819152 0
    outer loop
      vertex 1.99941 2.8 30.9935
      vertex 1.99941 2.8 29.2935
      vertex 0 1.4 30.9935
    endloop
  endfacet
  facet normal -0.573576 0.819152 0
    outer loop
      vertex 0 1.4 30.9935
      vertex 1.99941 2.8 29.2935
      vertex 0 1.4 29.2935
    endloop
  endfacet
  facet normal 0 0 -1
    outer loop
      vertex 22.4 2.8 29.2935
      vertex 22.4 0 29.2935
      vertex 1.99941 2.8 29.2935
    endloop
  endfacet
  facet normal 0 0 -1
    outer loop
      vertex 1.99941 2.8 29.2935
      vertex 22.4 0 29.2935
      vertex 1.99941 0 29.2935
    endloop
  endfacet
  facet normal 0 0 -1
    outer loop
      vertex 1.99941 2.8 29.2935
      vertex 1.99941 0 29.2935
      vertex 0 1.4 29.2935
    endloop
  endfacet
  facet normal -1 0 0
    outer loop
      vertex 22.4 2.8 29.2935
      vertex 22.4 2.8 27.9387
      vertex 22.4 0 29.2935
    endloop
  endfacet
  facet normal -1 0 0
    outer loop
      vertex 22.4 0 29.2935
      vertex 22.4 2.8 27.9387
      vertex 22.4 0 27.9387
    endloop
  endfacet
  facet normal 0 0 1
    outer loop
      vertex 1.99941 0 27.9387
      vertex 22.4 0 27.9387
      vertex 22.4 2.8 27.9387
    endloop
  endfacet
  facet normal 0 0 1
    outer loop
      vertex 0 1.4 27.9387
      vertex 1.99941 0 27.9387
      vertex 1.99941 2.8 27.9387
    endloop
  endfacet
  facet normal 0 0 1
    outer loop
      vertex 1.99941 2.8 27.9387
      vertex 1.99941 0 27.9387
      vertex 22.4 2.8 27.9387
    endloop
  endfacet
  facet normal -0.573576 0.819152 0
    outer loop
      vertex 1.99941 2.8 27.9387
      vertex 1.99941 2.8 26.2387
      vertex 0 1.4 27.9387
    endloop
  endfacet
  facet normal -0.573576 0.819152 0
    outer loop
      vertex 0 1.4 27.9387
      vertex 1.99941 2.8 26.2387
      vertex 0 1.4 26.2387
    endloop
  endfacet
  facet normal 0 0 -1
    outer loop
      vertex 22.4 2.8 26.2387
      vertex 22.4 0 26.2387
      vertex 1.99941 2.8 26.2387
    endloop
  endfacet
  facet normal 0 0 -1
    outer loop
      vertex 1.99941 2.8 26.2387
      vertex 22.4 0 26.2387
      vertex 1.99941 0 26.2387
    endloop
  endfacet
  facet normal 0 0 -1
    outer loop
      vertex 1.99941 2.8 26.2387
      vertex 1.99941 0 26.2387
      vertex 0 1.4 26.2387
    endloop
  endfacet
  facet normal -1 0 0
    outer loop
      vertex 22.4 2.8 26.2387
      vertex 22.4 2.8 24.8839
      vertex 22.4 0 26.2387
    endloop
  endfacet
  facet normal -1 0 0
    outer loop
      vertex 22.4 0 26.2387
      vertex 22.4 2.8 24.8839
      vertex 22.4 0 24.8839
    endloop
  endfacet
  facet normal 0 0 1
    outer loop
      vertex 1.99941 0 24.8839
      vertex 22.4 0 24.8839
      vertex 22.4 2.8 24.8839
    endloop
  endfacet
  facet normal 0 0 1
    outer loop
      vertex 0 1.4 24.8839
      vertex 1.99941 0 24.8839
      vertex 1.99941 2.8 24.8839
    endloop
  endfacet
  facet normal 0 0 1
    outer loop
      vertex 1.99941 2.8 24.8839
      vertex 1.99941 0 24.8839
      vertex 22.4 2.8 24.8839
    endloop
  endfacet
  facet normal -0.573576 0.819152 0
    outer loop
      vertex 1.99941 2.8 24.8839
      vertex 1.99941 2.8 23.1839
      vertex 0 1.4 24.8839
    endloop
  endfacet
  facet normal -0.573576 0.819152 0
    outer loop
      vertex 0 1.4 24.8839
      vertex 1.99941 2.8 23.1839
      vertex 0 1.4 23.1839
    endloop
  endfacet
  facet normal 0 0 -1
    outer loop
      vertex 22.4 2.8 23.1839
      vertex 22.4 0 23.1839
      vertex 1.99941 2.8 23.1839
    endloop
  endfacet
  facet normal 0 0 -1
    outer loop
      vertex 1.99941 2.8 23.1839
      vertex 22.4 0 23.1839
      vertex 1.99941 0 23.1839
    endloop
  endfacet
  facet normal 0 0 -1
    outer loop
      vertex 1.99941 2.8 23.1839
      vertex 1.99941 0 23.1839
      vertex 0 1.4 23.1839
    endloop
  endfacet
  facet normal -1 0 0
    outer loop
      vertex 22.4 2.8 23.1839
      vertex 22.4 2.8 21.829
      vertex 22.4 0 23.1839
    endloop
  endfacet
  facet normal -1 0 0
    outer loop
      vertex 22.4 0 23.1839
      vertex 22.4 2.8 21.829
      vertex 22.4 0 21.829
    endloop
  endfacet
  facet normal 0 0 1
    outer loop
      vertex 1.99941 0 21.829
      vertex 22.4 0 21.829
      vertex 22.4 2.8 21.829
    endloop
  endfacet
  facet normal 0 0 1
    outer loop
      vertex 0 1.4 21.829
      vertex 1.99941 0 21.829
      vertex 1.99941 2.8 21.829
    endloop
  endfacet
  facet normal 0 0 1
    outer loop
      vertex 1.99941 2.8 21.829
      vertex 1.99941 0 21.829
      vertex 22.4 2.8 21.829
    endloop
  endfacet
  facet normal -0.573576 0.819152 0
    outer loop
      vertex 1.99941 2.8 21.829
      vertex 1.99941 2.8 20.129
      vertex 0 1.4 21.829
    endloop
  endfacet
  facet normal -0.573576 0.819152 0
    outer loop
      vertex 0 1.4 21.829
      vertex 1.99941 2.8 20.129
      vertex 0 1.4 20.129
    endloop
  endfacet
  facet normal 0 0 -1
    outer loop
      vertex 22.4 2.8 20.129
      vertex 22.4 0 20.129
      vertex 1.99941 2.8 20.129
    endloop
  endfacet
  facet normal 0 0 -1
    outer loop
      vertex 1.99941 2.8 20.129
      vertex 22.4 0 20.129
      vertex 1.99941 0 20.129
    endloop
  endfacet
  facet normal 0 0 -1
    outer loop
      vertex 1.99941 2.8 20.129
      vertex 1.99941 0 20.129
      vertex 0 1.4 20.129
    endloop
  endfacet
  facet normal -1 0 0
    outer loop
      vertex 22.4 2.8 20.129
      vertex 22.4 2.8 18.7742
      vertex 22.4 0 20.129
    endloop
  endfacet
  facet normal -1 0 0
    outer loop
      vertex 22.4 0 20.129
      vertex 22.4 2.8 18.7742
      vertex 22.4 0 18.7742
    endloop
  endfacet
  facet normal 0 0 1
    outer loop
      vertex 1.99941 0 18.7742
      vertex 22.4 0 18.7742
      vertex 22.4 2.8 18.7742
    endloop
  endfacet
  facet normal 0 0 1
    outer loop
      vertex 0 1.4 18.7742
      vertex 1.99941 0 18.7742
      vertex 1.99941 2.8 18.7742
    endloop
  endfacet
  facet normal 0 0 1
    outer loop
      vertex 1.99941 2.8 18.7742
      vertex 1.99941 0 18.7742
      vertex 22.4 2.8 18.7742
    endloop
  endfacet
  facet normal -0.573576 0.819152 0
    outer loop
      vertex 1.99941 2.8 18.7742
      vertex 1.99941 2.8 17.0742
      vertex 0 1.4 18.7742
    endloop
  endfacet
  facet normal -0.573576 0.819152 0
    outer loop
      vertex 0 1.4 18.7742
      vertex 1.99941 2.8 17.0742
      vertex 0 1.4 17.0742
    endloop
  endfacet
  facet normal 0 0 -1
    outer loop
      vertex 22.4 2.8 17.0742
      vertex 22.4 0 17.0742
      vertex 1.99941 2.8 17.0742
    endloop
  endfacet
  facet normal 0 0 -1
    outer loop
      vertex 1.99941 2.8 17.0742
      vertex 22.4 0 17.0742
      vertex 1.99941 0 17.0742
    endloop
  endfacet
  facet normal 0 0 -1
    outer loop
      vertex 1.99941 2.8 17.0742
      vertex 1.99941 0 17.0742
      vertex 0 1.4 17.0742
    endloop
  endfacet
  facet normal -1 0 0
    outer loop
      vertex 22.4 2.8 17.0742
      vertex 22.4 2.8 15.7194
      vertex 22.4 0 17.0742
    endloop
  endfacet
  facet normal -1 0 0
    outer loop
      vertex 22.4 0 17.0742
      vertex 22.4 2.8 15.7194
      vertex 22.4 0 15.7194
    endloop
  endfacet
  facet normal 0 0 1
    outer loop
      vertex 1.99941 0 15.7194
      vertex 22.4 0 15.7194
      vertex 22.4 2.8 15.7194
    endloop
  endfacet
  facet normal 0 0 1
    outer loop
      vertex 0 1.4 15.7194
      vertex 1.99941 0 15.7194
      vertex 1.99941 2.8 15.7194
    endloop
  endfacet
  facet normal 0 0 1
    outer loop
      vertex 1.99941 2.8 15.7194
      vertex 1.99941 0 15.7194
      vertex 22.4 2.8 15.7194
    endloop
  endfacet
  facet normal -0.573576 0.819152 0
    outer loop
      vertex 1.99941 2.8 15.7194
      vertex 1.99941 2.8 14.0194
      vertex 0 1.4 15.7194
    endloop
  endfacet
  facet normal -0.573576 0.819152 0
    outer loop
      vertex 0 1.4 15.7194
      vertex 1.99941 2.8 14.0194
      vertex 0 1.4 14.0194
    endloop
  endfacet
  facet normal 0 0 -1
    outer loop
      vertex 22.4 2.8 14.0194
      vertex 22.4 0 14.0194
      vertex 1.99941 2.8 14.0194
    endloop
  endfacet
  facet normal 0 0 -1
    outer loop
      vertex 1.99941 2.8 14.0194
      vertex 22.4 0 14.0194
      vertex 1.99941 0 14.0194
    endloop
  endfacet
  facet normal 0 0 -1
    outer loop
      vertex 1.99941 2.8 14.0194
      vertex 1.99941 0 14.0194
      vertex 0 1.4 14.0194
    endloop
  endfacet
  facet normal -1 0 0
    outer loop
      vertex 22.4 2.8 14.0194
      vertex 22.4 2.8 12.6645
      vertex 22.4 0 14.0194
    endloop
  endfacet
  facet normal -1 0 0
    outer loop
      vertex 22.4 0 14.0194
      vertex 22.4 2.8 12.6645
      vertex 22.4 0 12.6645
    endloop
  endfacet
  facet normal 0 0 1
    outer loop
      vertex 1.99941 0 12.6645
      vertex 22.4 0 12.6645
      vertex 22.4 2.8 12.6645
    endloop
  endfacet
  facet normal 0 0 1
    outer loop
      vertex 0 1.4 12.6645
      vertex 1.99941 0 12.6645
      vertex 1.99941 2.8 12.6645
    endloop
  endfacet
  facet normal 0 0 1
    outer loop
      vertex 1.99941 2.8 12.6645
      vertex 1.99941 0 12.6645
      vertex 22.4 2.8 12.6645
    endloop
  endfacet
  facet normal -0.573576 0.819152 0
    outer loop
      vertex 1.99941 2.8 12.6645
      vertex 1.99941 2.8 10.9645
      vertex 0 1.4 12.6645
    endloop
  endfacet
  facet normal -0.573576 0.819152 0
    outer loop
      vertex 0 1.4 12.6645
      vertex 1.99941 2.8 10.9645
      vertex 0 1.4 10.9645
    endloop
  endfacet
  facet normal 0 0 -1
    outer loop
      vertex 22.4 2.8 10.9645
      vertex 22.4 0 10.9645
      vertex 1.99941 2.8 10.9645
    endloop
  endfacet
  facet normal 0 0 -1
    outer loop
      vertex 1.99941 2.8 10.9645
      vertex 22.4 0 10.9645
      vertex 1.99941 0 10.9645
    endloop
  endfacet
  facet normal 0 0 -1
    outer loop
      vertex 1.99941 2.8 10.9645
      vertex 1.99941 0 10.9645
      vertex 0 1.4 10.9645
    endloop
  endfacet
  facet normal -1 0 0
    outer loop
      vertex 22.4 2.8 10.9645
      vertex 22.4 2.8 9.60968
      vertex 22.4 0 10.9645
    endloop
  endfacet
  facet normal -1 0 0
    outer loop
      vertex 22.4 0 10.9645
      vertex 22.4 2.8 9.60968
      vertex 22.4 0 9.60968
    endloop
  endfacet
  facet normal 0 0 1
    outer loop
      vertex 1.99941 0 9.60968
      vertex 22.4 0 9.60968
      vertex 22.4 2.8 9.60968
    endloop
  endfacet
  facet normal 0 0 1
    outer loop
      vertex 0 1.4 9.60968
      vertex 1.99941 0 9.60968
      vertex 1.99941 2.8 9.60968
    endloop
  endfacet
  facet normal 0 0 1
    outer loop
      vertex 1.99941 2.8 9.60968
      vertex 1.99941 0 9.60968
      vertex 22.4 2.8 9.60968
    endloop
  endfacet
  facet normal -0.573576 0.819152 0
    outer loop
      vertex 1.99941 2.8 9.60968
      vertex 1.99941 2.8 7.90968
      vertex 0 1.4 9.60968
    endloop
  endfacet
  facet normal -0.573576 0.819152 0
    outer loop
      vertex 0 1.4 9.60968
      vertex 1.99941 2.8 7.90968
      vertex 0 1.4 7.90968
    endloop
  endfacet
  facet normal 0 0 -1
    outer loop
      vertex 22.4 2.8 7.90968
      vertex 22.4 0 7.90968
      vertex 1.99941 2.8 7.90968
    endloop
  endfacet
  facet normal 0 0 -1
    outer loop
      vertex 1.99941 2.8 7.90968
      vertex 22.4 0 7.90968
      vertex 1.99941 0 7.90968
    endloop
  endfacet
  facet normal 0 0 -1
    outer loop
      vertex 1.99941 2.8 7.90968
      vertex 1.99941 0 7.90968
      vertex 0 1.4 7.90968
    endloop
  endfacet
  facet normal -1 0 0
    outer loop
      vertex 22.4 2.8 7.90968
      vertex 22.4 2.8 6.55484
      vertex 22.4 0 7.90968
    endloop
  endfacet
  facet normal -1 0 0
    outer loop
      vertex 22.4 0 7.90968
      vertex 22.4 2.8 6.55484
      vertex 22.4 0 6.55484
    endloop
  endfacet
  facet normal 0 0 1
    outer loop
      vertex 1.99941 0 6.55484
      vertex 22.4 0 6.55484
      vertex 22.4 2.8 6.55484
    endloop
  endfacet
  facet normal 0 0 1
    outer loop
      vertex 0 1.4 6.55484
      vertex 1.99941 0 6.55484
      vertex 1.99941 2.8 6.55484
    endloop
  endfacet
  facet normal 0 0 1
    outer loop
      vertex 1.99941 2.8 6.55484
      vertex 1.99941 0 6.55484
      vertex 22.4 2.8 6.55484
    endloop
  endfacet
  facet normal -0.573576 0.819152 0
    outer loop
      vertex 1.99941 2.8 6.55484
      vertex 1.99941 2.8 4.85484
      vertex 0 1.4 6.55484
    endloop
  endfacet
  facet normal -0.573576 0.819152 0
    outer loop
      vertex 0 1.4 6.55484
      vertex 1.99941 2.8 4.85484
      vertex 0 1.4 4.85484
    endloop
  endfacet
  facet normal 0 0 -1
    outer loop
      vertex 22.4 2.8 4.85484
      vertex 22.4 0 4.85484
      vertex 1.99941 2.8 4.85484
    endloop
  endfacet
  facet normal 0 0 -1
    outer loop
      vertex 1.99941 2.8 4.85484
      vertex 22.4 0 4.85484
      vertex 1.99941 0 4.85484
    endloop
  endfacet
  facet normal 0 0 -1
    outer loop
      vertex 1.99941 2.8 4.85484
      vertex 1.99941 0 4.85484
      vertex 0 1.4 4.85484
    endloop
  endfacet
  facet normal -0.573576 -0.819152 0
    outer loop
      vertex 1.99941 0 4.85484
      vertex 1.99941 0 6.55484
      vertex 0 1.4 6.55484
    endloop
  endfacet
  facet normal -0.573576 -0.819152 0
    outer loop
      vertex 0 1.4 4.85484
      vertex 1.99941 0 4.85484
      vertex 0 1.4 6.55484
    endloop
  endfacet
  facet normal -0.573576 -0.819152 0
    outer loop
      vertex 1.99941 0 7.90968
      vertex 1.99941 0 9.60968
      vertex 0 1.4 9.60968
    endloop
  endfacet
  facet normal -0.573576 -0.819152 0
    outer loop
      vertex 0 1.4 7.90968
      vertex 1.99941 0 7.90968
      vertex 0 1.4 9.60968
    endloop
  endfacet
  facet normal -0.573576 -0.819152 0
    outer loop
      vertex 1.99941 0 10.9645
      vertex 1.99941 0 12.6645
      vertex 0 1.4 12.6645
    endloop
  endfacet
  facet normal -0.573576 -0.819152 0
    outer loop
      vertex 0 1.4 10.9645
      vertex 1.99941 0 10.9645
      vertex 0 1.4 12.6645
    endloop
  endfacet
  facet normal -0.573576 -0.819152 0
    outer loop
      vertex 1.99941 0 14.0194
      vertex 1.99941 0 15.7194
      vertex 0 1.4 15.7194
    endloop
  endfacet
  facet normal -0.573576 -0.819152 0
    outer loop
      vertex 0 1.4 14.0194
      vertex 1.99941 0 14.0194
      vertex 0 1.4 15.7194
    endloop
  endfacet
  facet normal -0.573576 -0.819152 0
    outer loop
      vertex 1.99941 0 17.0742
      vertex 1.99941 0 18.7742
      vertex 0 1.4 18.7742
    endloop
  endfacet
  facet normal -0.573576 -0.819152 0
    outer loop
      vertex 0 1.4 17.0742
      vertex 1.99941 0 17.0742
      vertex 0 1.4 18.7742
    endloop
  endfacet
  facet normal -0.573576 -0.819152 0
    outer loop
      vertex 1.99941 0 20.129
      vertex 1.99941 0 21.829
      vertex 0 1.4 21.829
    endloop
  endfacet
  facet normal -0.573576 -0.819152 0
    outer loop
      vertex 0 1.4 20.129
      vertex 1.99941 0 20.129
      vertex 0 1.4 21.829
    endloop
  endfacet
  facet normal -0.573576 -0.819152 0
    outer loop
      vertex 1.99941 0 23.1839
      vertex 1.99941 0 24.8839
      vertex 0 1.4 24.8839
    endloop
  endfacet
  facet normal -0.573576 -0.819152 0
    outer loop
      vertex 0 1.4 23.1839
      vertex 1.99941 0 23.1839
      vertex 0 1.4 24.8839
    endloop
  endfacet
  facet normal -0.573576 -0.819152 0
    outer loop
      vertex 1.99941 0 26.2387
      vertex 1.99941 0 27.9387
      vertex 0 1.4 27.9387
    endloop
  endfacet
  facet normal -0.573576 -0.819152 0
    outer loop
      vertex 0 1.4 26.2387
      vertex 1.99941 0 26.2387
      vertex 0 1.4 27.9387
    endloop
  endfacet
  facet normal -0.573576 -0.819152 0
    outer loop
      vertex 1.99941 0 29.2935
      vertex 1.99941 0 30.9935
      vertex 0 1.4 30.9935
    endloop
  endfacet
  facet normal -0.573576 -0.819152 0
    outer loop
      vertex 0 1.4 29.2935
      vertex 1.99941 0 29.2935
      vertex 0 1.4 30.9935
    endloop
  endfacet
  facet normal -0.573576 -0.819152 0
    outer loop
      vertex 1.99941 0 32.3484
      vertex 1.99941 0 34.0484
      vertex 0 1.4 34.0484
    endloop
  endfacet
  facet normal -0.573576 -0.819152 0
    outer loop
      vertex 0 1.4 32.3484
      vertex 1.99941 0 32.3484
      vertex 0 1.4 34.0484
    endloop
  endfacet
  facet normal -0.573576 -0.819152 0
    outer loop
      vertex 1.99941 0 35.4032
      vertex 1.99941 0 37.1032
      vertex 0 1.4 37.1032
    endloop
  endfacet
  facet normal -0.573576 -0.819152 0
    outer loop
      vertex 0 1.4 35.4032
      vertex 1.99941 0 35.4032
      vertex 0 1.4 37.1032
    endloop
  endfacet
  facet normal -0.573576 -0.819152 0
    outer loop
      vertex 1.99941 0 38.4581
      vertex 1.99941 0 40.1581
      vertex 0 1.4 40.1581
    endloop
  endfacet
  facet normal -0.573576 -0.819152 0
    outer loop
      vertex 0 1.4 38.4581
      vertex 1.99941 0 38.4581
      vertex 0 1.4 40.1581
    endloop
  endfacet
  facet normal -0.573576 -0.819152 0
    outer loop
      vertex 1.99941 0 41.5129
      vertex 1.99941 0 43.2129
      vertex 0 1.4 43.2129
    endloop
  endfacet
  facet normal -0.573576 -0.819152 0
    outer loop
      vertex 0 1.4 41.5129
      vertex 1.99941 0 41.5129
      vertex 0 1.4 43.2129
    endloop
  endfacet
  facet normal -0.573576 -0.819152 0
    outer loop
      vertex 1.99941 0 44.5677
      vertex 1.99941 0 46.2677
      vertex 0 1.4 46.2677
    endloop
  endfacet
  facet normal -0.573576 -0.819152 0
    outer loop
      vertex 0 1.4 44.5677
      vertex 1.99941 0 44.5677
      vertex 0 1.4 46.2677
    endloop
  endfacet
  facet normal -0.573576 -0.819152 0
    outer loop
      vertex 1.99941 0 47.6226
      vertex 1.99941 0 49.3226
      vertex 0 1.4 49.3226
    endloop
  endfacet
  facet normal -0.573576 -0.819152 0
    outer loop
      vertex 0 1.4 47.6226
      vertex 1.99941 0 47.6226
      vertex 0 1.4 49.3226
    endloop
  endfacet
  facet normal -0.573576 -0.819152 0
    outer loop
      vertex 1.99941 0 50.6774
      vertex 1.99941 0 52.3774
      vertex 0 1.4 52.3774
    endloop
  endfacet
  facet normal -0.573576 -0.819152 0
    outer loop
      vertex 0 1.4 50.6774
      vertex 1.99941 0 50.6774
      vertex 0 1.4 52.3774
    endloop
  endfacet
  facet normal -0.573576 -0.819152 0
    outer loop
      vertex 1.99941 0 53.7323
      vertex 1.99941 0 55.4323
      vertex 0 1.4 55.4323
    endloop
  endfacet
  facet normal -0.573576 -0.819152 0
    outer loop
      vertex 0 1.4 53.7323
      vertex 1.99941 0 53.7323
      vertex 0 1.4 55.4323
    endloop
  endfacet
  facet normal -0.573576 -0.819152 0
    outer loop
      vertex 1.99941 0 56.7871
      vertex 1.99941 0 58.4871
      vertex 0 1.4 58.4871
    endloop
  endfacet
  facet normal -0.573576 -0.819152 0
    outer loop
      vertex 0 1.4 56.7871
      vertex 1.99941 0 56.7871
      vertex 0 1.4 58.4871
    endloop
  endfacet
  facet normal -0.573576 -0.819152 0
    outer loop
      vertex 1.99941 0 59.8419
      vertex 1.99941 0 61.5419
      vertex 0 1.4 61.5419
    endloop
  endfacet
  facet normal -0.573576 -0.819152 0
    outer loop
      vertex 0 1.4 59.8419
      vertex 1.99941 0 59.8419
      vertex 0 1.4 61.5419
    endloop
  endfacet
  facet normal -0.573576 -0.819152 0
    outer loop
      vertex 1.99941 0 62.8968
      vertex 1.99941 0 64.5968
      vertex 0 1.4 64.5968
    endloop
  endfacet
  facet normal -0.573576 -0.819152 0
    outer loop
      vertex 0 1.4 62.8968
      vertex 1.99941 0 62.8968
      vertex 0 1.4 64.5968
    endloop
  endfacet
  facet normal -0.573576 -0.819152 0
    outer loop
      vertex 1.99941 0 65.9516
      vertex 1.99941 0 67.6516
      vertex 0 1.4 67.6516
    endloop
  endfacet
  facet normal -0.573576 -0.819152 0
    outer loop
      vertex 0 1.4 65.9516
      vertex 1.99941 0 65.9516
      vertex 0 1.4 67.6516
    endloop
  endfacet
  facet normal -0.573576 -0.819152 0
    outer loop
      vertex 1.99941 0 69.0065
      vertex 1.99941 0 70.7065
      vertex 0 1.4 70.7065
    endloop
  endfacet
  facet normal -0.573576 -0.819152 0
    outer loop
      vertex 0 1.4 69.0065
      vertex 1.99941 0 69.0065
      vertex 0 1.4 70.7065
    endloop
  endfacet
  facet normal -0.573576 -0.819152 0
    outer loop
      vertex 1.99941 0 72.0613
      vertex 1.99941 0 73.7613
      vertex 0 1.4 73.7613
    endloop
  endfacet
  facet normal -0.573576 -0.819152 0
    outer loop
      vertex 0 1.4 72.0613
      vertex 1.99941 0 72.0613
      vertex 0 1.4 73.7613
    endloop
  endfacet
  facet normal -0.573576 -0.819152 0
    outer loop
      vertex 1.99941 0 75.1161
      vertex 1.99941 0 76.8161
      vertex 0 1.4 76.8161
    endloop
  endfacet
  facet normal -0.573576 -0.819152 0
    outer loop
      vertex 0 1.4 75.1161
      vertex 1.99941 0 75.1161
      vertex 0 1.4 76.8161
    endloop
  endfacet
  facet normal -0.573576 -0.819152 0
    outer loop
      vertex 1.99941 0 78.171
      vertex 1.99941 0 79.871
      vertex 0 1.4 79.871
    endloop
  endfacet
  facet normal -0.573576 -0.819152 0
    outer loop
      vertex 0 1.4 78.171
      vertex 1.99941 0 78.171
      vertex 0 1.4 79.871
    endloop
  endfacet
  facet normal -0.573576 -0.819152 0
    outer loop
      vertex 1.99941 0 81.2258
      vertex 1.99941 0 82.9258
      vertex 0 1.4 82.9258
    endloop
  endfacet
  facet normal -0.573576 -0.819152 0
    outer loop
      vertex 0 1.4 81.2258
      vertex 1.99941 0 81.2258
      vertex 0 1.4 82.9258
    endloop
  endfacet
  facet normal -0.573576 -0.819152 0
    outer loop
      vertex 1.99941 0 84.2806
      vertex 1.99941 0 85.9806
      vertex 0 1.4 85.9806
    endloop
  endfacet
  facet normal -0.573576 -0.819152 0
    outer loop
      vertex 0 1.4 84.2806
      vertex 1.99941 0 84.2806
      vertex 0 1.4 85.9806
    endloop
  endfacet
  facet normal -0.573576 -0.819152 0
    outer loop
      vertex 1.99941 0 87.3355
      vertex 1.99941 0 89.0355
      vertex 0 1.4 89.0355
    endloop
  endfacet
  facet normal -0.573576 -0.819152 0
    outer loop
      vertex 0 1.4 87.3355
      vertex 1.99941 0 87.3355
      vertex 0 1.4 89.0355
    endloop
  endfacet
  facet normal -0.573576 -0.819152 0
    outer loop
      vertex 1.99941 0 90.3903
      vertex 1.99941 0 92.0903
      vertex 0 1.4 92.0903
    endloop
  endfacet
  facet normal -0.573576 -0.819152 0
    outer loop
      vertex 0 1.4 90.3903
      vertex 1.99941 0 90.3903
      vertex 0 1.4 92.0903
    endloop
  endfacet
  facet normal -0.573576 -0.819152 0
    outer loop
      vertex 1.99941 0 93.4452
      vertex 1.99941 0 95.1452
      vertex 0 1.4 95.1452
    endloop
  endfacet
  facet normal -0.573576 -0.819152 0
    outer loop
      vertex 0 1.4 93.4452
      vertex 1.99941 0 93.4452
      vertex 0 1.4 95.1452
    endloop
  endfacet
  facet normal -0.573576 -0.819152 0
    outer loop
      vertex 1.99941 0 96.5
      vertex 1.99941 0 100
      vertex 0 1.4 100
    endloop
  endfacet
  facet normal -0.573576 -0.819152 0
    outer loop
      vertex 0 1.4 96.5
      vertex 1.99941 0 96.5
      vertex 0 1.4 100
    endloop
  endfacet
endsolid OpenSCAD_Model
